<svg version="1.1" id="Layer_1" xmlns="http://www.w3.org/2000/svg" xmlns:xlink="http://www.w3.org/1999/xlink" x="0px" y="0px"
	 width="51" height="50" viewBox="0 0 290 174" enable-background="new 0 0 290 174" xml:space="preserve">
<path fill="#FEFDFD" opacity="1.000000" stroke="none" 
	d="
M197.000000,175.000000 
	C131.333344,175.000000 66.166679,175.000000 1.000018,175.000000 
	C1.000012,117.000015 1.000012,59.000031 1.000006,1.000033 
	C97.666634,1.000022 194.333267,1.000022 290.999939,1.000011 
	C290.999939,58.999966 290.999939,116.999931 290.999969,174.999939 
	C259.833344,175.000000 228.666672,175.000000 197.000000,175.000000 
M83.087029,31.170723 
	C82.783783,16.916241 76.142784,6.815857 62.582485,3.645805 
	C52.948200,1.393556 43.425465,1.934636 34.012989,4.589986 
	C30.213657,5.661815 26.482889,7.128804 22.917793,8.828823 
	C20.250168,10.100883 18.645533,16.608540 20.292946,19.563311 
	C22.281298,23.129578 24.987120,20.420334 27.179480,19.656652 
	C36.205410,16.512585 45.253426,14.042201 54.956547,15.979159 
	C60.608910,17.107496 65.149826,19.717714 66.318436,25.654600 
	C67.349503,30.892757 67.519897,36.300323 68.091743,41.840595 
	C57.543732,40.813869 48.384659,38.094345 38.321609,40.279999 
	C29.865026,42.116741 22.852690,45.006870 18.437111,52.131805 
	C12.861859,61.127972 12.885379,70.937531 18.097412,80.097755 
	C23.389639,89.398933 32.490047,91.710190 42.519321,91.405838 
	C53.026104,91.086998 61.499805,86.418427 68.570274,78.560669 
	C69.416107,80.039642 69.997673,81.037064 70.561058,82.044662 
	C75.702538,91.240044 78.024094,91.800201 85.826653,85.047165 
	C87.004967,84.027351 87.567299,81.308472 87.183350,79.662766 
	C86.177361,75.350853 84.490532,71.197792 83.218346,66.055557 
	C83.116203,54.713333 83.014053,43.371109 83.087029,31.170723 
M5.327864,114.986946 
	C1.956126,115.654358 2.219964,117.569321 3.974304,119.580482 
	C5.385253,121.197983 7.112731,122.555473 8.780230,123.930763 
	C56.296524,163.120132 110.696396,179.301254 171.833466,172.062683 
	C201.908127,168.501862 230.138306,159.141327 255.746048,142.605850 
	C258.115356,141.075943 260.548096,139.518524 262.508942,137.536270 
	C263.450928,136.583969 264.048431,134.299942 263.546021,133.184784 
	C263.029266,132.037674 261.044464,131.154480 259.588348,130.944626 
	C258.247375,130.751343 256.698578,131.466263 255.338333,132.019638 
	C231.670883,141.647903 207.218048,148.116562 181.809738,151.190399 
	C149.761108,155.067566 118.048920,153.403717 86.586143,146.422470 
	C58.160370,140.115082 31.361677,129.577347 5.327864,114.986946 
M201.337524,28.892487 
	C203.661865,21.377346 205.986206,13.862205 208.497025,5.744131 
	C203.817444,5.744131 199.971466,6.117058 196.235504,5.635900 
	C192.723450,5.183582 191.664932,6.834401 190.954788,9.668797 
	C189.019241,17.394073 186.982895,25.094078 184.990189,32.805054 
	C181.635620,45.785904 178.283920,58.767494 174.653549,72.823029 
	C173.909058,70.322357 173.431351,68.965973 173.102188,67.574455 
	C169.091400,50.619556 165.085724,33.663422 161.113754,16.699400 
	C158.433990,5.254260 158.461578,5.403207 146.477829,5.615788 
	C142.648087,5.683723 140.936279,7.122825 140.129700,10.720529 
	C137.189529,23.834988 134.087387,36.913303 131.013916,49.997635 
	C129.384476,56.934456 127.688362,63.855621 126.022339,70.783852 
	C124.830566,69.026794 124.403603,67.429878 123.994400,65.828415 
	C119.353134,47.664299 114.791115,29.479111 109.968056,11.363414 
	C109.430099,9.342815 107.629166,6.421643 106.039551,6.155658 
	C101.711014,5.431379 97.181747,5.906768 92.508812,5.906768 
	C92.655838,7.199686 92.626808,8.040146 92.856186,8.802894 
	C100.545753,34.372963 108.192368,59.956673 116.130455,85.449585 
	C116.632309,87.061279 119.348595,88.870781 121.177063,89.038788 
	C133.522675,90.173164 133.537643,90.038544 136.597153,78.298027 
	C136.805954,77.496735 136.910919,76.668877 137.104156,75.862961 
	C141.196732,58.794846 145.295059,41.728107 149.577469,23.889606 
	C150.229126,25.264061 150.617493,25.817032 150.762512,26.427780 
	C154.864471,43.704563 158.962097,60.982430 163.016251,78.270477 
	C165.703186,89.728310 165.670486,89.635727 177.464005,89.368034 
	C181.201736,89.283195 183.016388,87.885323 184.123840,84.213318 
	C189.622284,65.981773 195.405273,47.836044 201.337524,28.892487 
M272.829834,16.939920 
	C272.895447,8.951007 271.662567,7.015485 264.119873,4.857508 
	C255.598724,2.419600 247.200256,1.824384 238.106522,3.305141 
	C221.676422,5.980497 210.025757,21.873684 218.587173,38.006836 
	C222.358551,45.113617 228.939468,48.467403 236.229797,50.886868 
	C242.984909,53.128693 249.890274,55.113174 256.313354,58.104477 
	C262.594116,61.029495 263.621704,68.679161 259.140045,73.672363 
	C255.419235,77.817894 241.474930,81.246742 236.377319,79.457283 
	C230.480591,77.387306 224.542725,75.410721 218.533188,73.709984 
	C217.557083,73.433731 215.293762,74.547653 215.024750,75.440582 
	C213.200790,81.494659 215.203018,85.357246 221.054398,87.674103 
	C223.054596,88.466087 225.120941,89.139221 227.209930,89.650833 
	C240.660751,92.945099 253.961563,93.570152 266.220642,85.786270 
	C280.867615,76.486206 281.368042,55.231983 267.139557,46.879967 
	C262.939331,44.414455 258.145081,42.930866 253.561386,41.156502 
	C248.323196,39.128765 242.909851,37.521969 237.772079,35.276012 
	C233.488876,33.403633 230.956680,29.906235 231.489426,24.958458 
	C232.043152,19.815826 235.305496,17.051256 240.152420,15.952726 
	C249.211487,13.899547 257.957520,15.036198 266.527557,18.438074 
	C268.579346,19.252533 271.075165,21.603645 272.829834,16.939920 
M280.437256,148.892654 
	C285.870361,139.154205 289.266724,128.863785 289.235474,117.568748 
	C289.226288,114.253677 287.923859,112.072868 284.742828,111.305893 
	C268.576233,107.407959 253.052994,108.806328 238.534714,117.359879 
	C237.248871,118.117455 236.513519,119.809410 235.522476,121.067383 
	C238.888306,121.958488 241.489304,121.620461 244.099197,121.524155 
	C251.891342,121.236603 259.715057,120.531212 267.473541,120.955650 
	C275.514679,121.395538 277.554657,124.302292 275.555420,132.104095 
	C273.460358,140.279892 270.475037,148.226105 267.936951,156.290985 
	C267.382477,158.052826 267.074158,159.892151 266.577545,162.016312 
	C271.711029,160.991257 274.659760,158.126221 280.437256,148.892654 
z"/>
<path fill="#FF9A04" opacity="1.000000" stroke="none" 
	d="
M5.711155,115.055458 
	C31.361677,129.577347 58.160370,140.115082 86.586143,146.422470 
	C118.048920,153.403717 149.761108,155.067566 181.809738,151.190399 
	C207.218048,148.116562 231.670883,141.647903 255.338333,132.019638 
	C256.698578,131.466263 258.247375,130.751343 259.588348,130.944626 
	C261.044464,131.154480 263.029266,132.037674 263.546021,133.184784 
	C264.048431,134.299942 263.450928,136.583969 262.508942,137.536270 
	C260.548096,139.518524 258.115356,141.075943 255.746048,142.605850 
	C230.138306,159.141327 201.908127,168.501862 171.833466,172.062683 
	C110.696396,179.301254 56.296524,163.120132 8.780230,123.930763 
	C7.112731,122.555473 5.385253,121.197983 3.974304,119.580482 
	C2.219964,117.569321 1.956126,115.654358 5.711155,115.055458 
z"/>
<path fill="#283240" opacity="1.000000" stroke="none" 
	d="
M201.212784,29.276287 
	C195.405273,47.836044 189.622284,65.981773 184.123840,84.213318 
	C183.016388,87.885323 181.201736,89.283195 177.464005,89.368034 
	C165.670486,89.635727 165.703186,89.728310 163.016251,78.270477 
	C158.962097,60.982430 154.864471,43.704563 150.762512,26.427780 
	C150.617493,25.817032 150.229126,25.264061 149.577469,23.889606 
	C145.295059,41.728107 141.196732,58.794846 137.104156,75.862961 
	C136.910919,76.668877 136.805954,77.496735 136.597153,78.298027 
	C133.537643,90.038544 133.522675,90.173164 121.177063,89.038788 
	C119.348595,88.870781 116.632309,87.061279 116.130455,85.449585 
	C108.192368,59.956673 100.545753,34.372963 92.856186,8.802894 
	C92.626808,8.040146 92.655838,7.199686 92.508812,5.906768 
	C97.181747,5.906768 101.711014,5.431379 106.039551,6.155658 
	C107.629166,6.421643 109.430099,9.342815 109.968056,11.363414 
	C114.791115,29.479111 119.353134,47.664299 123.994400,65.828415 
	C124.403603,67.429878 124.830566,69.026794 126.022339,70.783852 
	C127.688362,63.855621 129.384476,56.934456 131.013916,49.997635 
	C134.087387,36.913303 137.189529,23.834988 140.129700,10.720529 
	C140.936279,7.122825 142.648087,5.683723 146.477829,5.615788 
	C158.461578,5.403207 158.433990,5.254260 161.113754,16.699400 
	C165.085724,33.663422 169.091400,50.619556 173.102188,67.574455 
	C173.431351,68.965973 173.909058,70.322357 174.653549,72.823029 
	C178.283920,58.767494 181.635620,45.785904 184.990189,32.805054 
	C186.982895,25.094078 189.019241,17.394073 190.954788,9.668797 
	C191.664932,6.834401 192.723450,5.183582 196.235504,5.635900 
	C199.971466,6.117058 203.817444,5.744131 208.497025,5.744131 
	C205.986206,13.862205 203.661865,21.377346 201.212784,29.276287 
z"/>
<path fill="#273140" opacity="1.000000" stroke="none" 
	d="
M83.075058,66.981422 
	C84.490532,71.197792 86.177361,75.350853 87.183350,79.662766 
	C87.567299,81.308472 87.004967,84.027351 85.826653,85.047165 
	C78.024094,91.800201 75.702538,91.240044 70.561058,82.044662 
	C69.997673,81.037064 69.416107,80.039642 68.570274,78.560669 
	C61.499805,86.418427 53.026104,91.086998 42.519321,91.405838 
	C32.490047,91.710190 23.389639,89.398933 18.097412,80.097755 
	C12.885379,70.937531 12.861859,61.127972 18.437111,52.131805 
	C22.852690,45.006870 29.865026,42.116741 38.321609,40.279999 
	C48.384659,38.094345 57.543732,40.813869 68.091743,41.840595 
	C67.519897,36.300323 67.349503,30.892757 66.318436,25.654600 
	C65.149826,19.717714 60.608910,17.107496 54.956547,15.979159 
	C45.253426,14.042201 36.205410,16.512585 27.179480,19.656652 
	C24.987120,20.420334 22.281298,23.129578 20.292946,19.563311 
	C18.645533,16.608540 20.250168,10.100883 22.917793,8.828823 
	C26.482889,7.128804 30.213657,5.661815 34.012989,4.589986 
	C43.425465,1.934636 52.948200,1.393556 62.582485,3.645805 
	C76.142784,6.815857 82.783783,16.916241 82.713882,31.899984 
	C82.234299,43.373150 82.107651,54.116974 82.067528,64.861130 
	C82.064888,65.566628 82.723839,66.274597 83.075058,66.981422 
M39.222332,78.194511 
	C43.931744,79.759720 48.527866,79.226425 53.210964,77.819534 
	C63.390366,74.761452 69.584526,65.294456 67.798622,54.813225 
	C67.622749,53.781052 66.092194,52.282524 65.091499,52.200001 
	C58.030361,51.617699 50.926926,50.874477 43.869339,51.118446 
	C37.221657,51.348244 32.619217,55.890644 31.305206,61.959030 
	C29.839436,68.728287 32.360741,74.325005 39.222332,78.194511 
z"/>
<path fill="#273140" opacity="1.000000" stroke="none" 
	d="
M272.769653,17.339493 
	C271.075165,21.603645 268.579346,19.252533 266.527557,18.438074 
	C257.957520,15.036198 249.211487,13.899547 240.152420,15.952726 
	C235.305496,17.051256 232.043152,19.815826 231.489426,24.958458 
	C230.956680,29.906235 233.488876,33.403633 237.772079,35.276012 
	C242.909851,37.521969 248.323196,39.128765 253.561386,41.156502 
	C258.145081,42.930866 262.939331,44.414455 267.139557,46.879967 
	C281.368042,55.231983 280.867615,76.486206 266.220642,85.786270 
	C253.961563,93.570152 240.660751,92.945099 227.209930,89.650833 
	C225.120941,89.139221 223.054596,88.466087 221.054398,87.674103 
	C215.203018,85.357246 213.200790,81.494659 215.024750,75.440582 
	C215.293762,74.547653 217.557083,73.433731 218.533188,73.709984 
	C224.542725,75.410721 230.480591,77.387306 236.377319,79.457283 
	C241.474930,81.246742 255.419235,77.817894 259.140045,73.672363 
	C263.621704,68.679161 262.594116,61.029495 256.313354,58.104477 
	C249.890274,55.113174 242.984909,53.128693 236.229797,50.886868 
	C228.939468,48.467403 222.358551,45.113617 218.587173,38.006836 
	C210.025757,21.873684 221.676422,5.980497 238.106522,3.305141 
	C247.200256,1.824384 255.598724,2.419600 264.119873,4.857508 
	C271.662567,7.015485 272.895447,8.951007 272.769653,17.339493 
z"/>
<path fill="#FF9A05" opacity="1.000000" stroke="none" 
	d="
M280.251831,149.209930 
	C274.659760,158.126221 271.711029,160.991257 266.577545,162.016312 
	C267.074158,159.892151 267.382477,158.052826 267.936951,156.290985 
	C270.475037,148.226105 273.460358,140.279892 275.555420,132.104095 
	C277.554657,124.302292 275.514679,121.395538 267.473541,120.955650 
	C259.715057,120.531212 251.891342,121.236603 244.099197,121.524155 
	C241.489304,121.620461 238.888306,121.958488 235.522476,121.067383 
	C236.513519,119.809410 237.248871,118.117455 238.534714,117.359879 
	C253.052994,108.806328 268.576233,107.407959 284.742828,111.305893 
	C287.923859,112.072868 289.226288,114.253677 289.235474,117.568748 
	C289.266724,128.863785 285.870361,139.154205 280.251831,149.209930 
z"/>
<path fill="#02182D" opacity="1.000000" stroke="none" 
	d="
M83.146698,66.518494 
	C82.723839,66.274597 82.064888,65.566628 82.067528,64.861130 
	C82.107651,54.116974 82.234299,43.373150 82.626328,32.329063 
	C83.014053,43.371109 83.116203,54.713333 83.146698,66.518494 
z"/>
<path fill="#FBFBFC" opacity="1.000000" stroke="none" 
	d="
M38.888042,78.121841 
	C32.360741,74.325005 29.839436,68.728287 31.305206,61.959030 
	C32.619217,55.890644 37.221657,51.348244 43.869339,51.118446 
	C50.926926,50.874477 58.030361,51.617699 65.091499,52.200001 
	C66.092194,52.282524 67.622749,53.781052 67.798622,54.813225 
	C69.584526,65.294456 63.390366,74.761452 53.210964,77.819534 
	C48.527866,79.226425 43.931744,79.759720 38.888042,78.121841 
z"/>
</svg>