<svg version="1.1" id="Layer_1" xmlns="http://www.w3.org/2000/svg" xmlns:xlink="http://www.w3.org/1999/xlink" x="0px" y="0px"
	 width="51" height="50" viewBox="0 0 957 1024" enable-background="new 0 0 957 1024" xml:space="preserve">
<path fill="#000000" opacity="1.000000" stroke="none" 
	d="
M550.000000,1.000006 
	C685.980774,1.000000 821.961487,1.000000 957.971130,1.000000 
	C957.971130,342.265747 957.971130,683.531494 957.971130,1024.898682 
	C639.112732,1024.898682 320.225464,1024.898682 1.000000,1024.898682 
	C1.000000,841.972107 1.000000,658.943970 1.290511,475.151672 
	C3.896390,475.598907 6.258848,476.728851 8.519399,478.035126 
	C22.074251,485.867950 35.595036,493.759766 49.147621,501.596527 
	C65.662979,511.146484 82.174408,520.703613 98.732941,530.178284 
	C111.458992,537.460144 124.255226,544.619324 137.380142,551.899109 
	C150.258789,544.741272 162.761658,537.489624 175.300232,530.300232 
	C191.527023,520.996033 207.808640,511.787170 224.017899,502.452606 
	C240.353333,493.045380 256.629089,483.534515 272.959473,474.532593 
	C272.991974,608.604309 272.996063,742.212524 272.999939,875.820740 
	C273.000580,897.811096 273.033264,919.801636 272.955109,941.791687 
	C272.946075,944.322266 273.455231,945.780701 275.983459,947.118469 
	C283.043030,950.853882 289.793274,955.169495 296.715973,959.168884 
	C310.552063,967.162170 324.443848,975.059143 338.271515,983.066956 
	C352.120453,991.086975 365.888580,999.246704 379.750336,1007.244324 
	C389.478912,1012.857239 399.305054,1018.301025 409.444275,1023.882202 
	C432.935059,1010.735474 456.095123,997.572205 479.195526,984.304993 
	C499.620026,972.574585 519.929321,960.642578 540.408203,949.008545 
	C544.319458,946.786560 546.158875,944.487976 546.136414,939.612671 
	C545.912170,890.821106 545.995239,842.028137 546.019592,793.235535 
	C546.020508,791.437988 546.307251,789.640564 546.598083,787.821411 
	C546.735413,787.799805 546.781982,787.525696 547.058594,787.339966 
	C548.227661,786.760254 549.164307,786.443237 550.005981,785.960693 
	C565.657043,776.987305 581.303345,768.005554 596.936890,759.001587 
	C610.032349,751.459412 623.122070,743.907166 636.192261,736.321289 
	C650.110168,728.243408 663.885559,719.908264 677.992615,712.177185 
	C681.231873,710.401917 682.067383,708.687927 682.054688,705.377197 
	C681.955811,679.562622 682.021790,653.747498 681.993835,627.932556 
	C681.966431,602.620972 681.888489,577.309326 681.807007,551.653076 
	C680.902893,550.563904 680.114136,549.664368 679.132996,549.097656 
	C656.575867,536.068298 633.987915,523.092224 611.427185,510.069122 
	C597.125549,501.813629 582.893677,493.436768 568.561584,485.234863 
	C561.147217,480.991791 553.582581,477.011292 546.049438,472.450287 
	C546.038086,420.353149 546.063049,368.717865 546.445435,317.058533 
	C550.734070,319.323944 554.653442,321.633942 558.598389,323.899414 
	C574.857544,333.236664 591.144287,342.525940 607.382324,351.899658 
	C621.072876,359.802826 634.683777,367.844177 648.377991,375.740936 
	C664.621521,385.107727 680.942871,394.339691 697.181885,403.714264 
	C713.285278,413.010559 729.322754,422.420807 745.399048,431.764099 
	C763.578003,442.329376 781.730835,452.940308 799.974243,463.393127 
	C805.859924,466.765350 811.996277,469.699982 818.381226,472.898010 
	C833.870605,464.430695 849.042053,455.979553 864.110352,447.348297 
	C880.461060,437.982574 896.713806,428.445923 913.012878,418.989990 
	C925.236267,411.898468 937.318726,404.542419 949.774109,397.884430 
	C953.928711,395.663635 955.151978,393.279694 955.100769,388.806488 
	C954.870178,368.667358 955.018982,348.524017 954.995789,328.382263 
	C954.960632,297.923248 954.896301,267.464233 954.798462,236.653625 
	C948.934631,233.102539 943.046997,230.022766 937.310913,226.682663 
	C913.506470,212.821701 889.769287,198.845276 865.966309,184.981857 
	C842.440369,171.279800 818.906128,157.591156 795.300049,144.027969 
	C770.178467,129.594009 744.929932,115.380951 719.806763,100.949753 
	C689.756653,83.688416 659.771606,66.313660 629.775269,48.958916 
	C603.962402,34.024605 578.164368,19.064381 552.404968,4.038142 
	C551.366028,3.432124 550.791077,2.030787 550.000000,1.000006 
z"/>
<path fill="#F8BF3C" opacity="1.000000" stroke="none" 
	d="
M549.555847,1.000006 
	C550.791077,2.030787 551.366028,3.432124 552.404968,4.038142 
	C578.164368,19.064381 603.962402,34.024605 629.775269,48.958916 
	C659.771606,66.313660 689.756653,83.688416 719.806763,100.949753 
	C744.929932,115.380951 770.178467,129.594009 795.300049,144.027969 
	C818.906128,157.591156 842.440369,171.279800 865.966309,184.981857 
	C889.769287,198.845276 913.506470,212.821701 937.310913,226.682663 
	C943.046997,230.022766 948.934631,233.102539 954.498169,236.807236 
	C921.950989,255.908157 889.680542,274.542480 857.354980,293.080872 
	C844.232300,300.606567 830.989807,307.923279 817.474609,315.203033 
	C740.104614,270.606232 663.071106,226.125275 586.009949,181.692230 
	C572.751709,174.047638 559.375977,166.606781 545.697144,159.102570 
	C544.003967,159.788986 542.625488,160.370285 541.338989,161.111374 
	C523.169678,171.577682 505.016113,182.071106 486.852600,192.547363 
	C450.670074,213.416611 414.472351,234.259506 378.302460,255.150589 
	C345.734985,273.960999 313.209625,292.844299 280.641357,311.653290 
	C244.614624,332.459625 208.574402,353.242676 172.509781,373.983215 
	C160.695679,380.777435 148.786987,387.407135 136.609100,393.961243 
	C115.127678,381.605621 93.969513,369.382019 72.786865,357.200958 
	C48.869408,343.447327 24.929905,329.731995 1.000001,316.000000 
	C1.000000,315.555542 1.000000,315.111115 1.257526,314.668243 
	C4.056056,313.233215 6.613405,311.824677 9.135407,310.355469 
	C25.257469,300.963074 41.330082,291.484955 57.499664,282.175201 
	C75.878304,271.593536 94.385216,261.234497 112.755089,250.637756 
	C130.441727,240.435135 147.991440,229.995392 165.662735,219.765915 
	C182.063980,210.271652 198.571945,200.961868 214.986191,191.489853 
	C233.242249,180.955017 251.422699,170.289154 269.677734,159.752548 
	C290.013641,148.014862 310.429901,136.416306 330.749756,124.651093 
	C352.914337,111.817772 374.961945,98.782135 397.146759,85.984169 
	C418.193390,73.842796 439.408600,61.993484 460.446411,49.837044 
	C487.249634,34.349163 513.953003,18.688400 540.668884,3.050057 
	C541.297302,2.682246 541.564392,1.697164 542.000000,0.999994 
	C544.370544,1.000000 546.741150,1.000000 549.555847,1.000006 
z"/>
<path fill="#000000" opacity="1.000000" stroke="none" 
	d="
M541.531372,0.999994 
	C541.564392,1.697164 541.297302,2.682246 540.668884,3.050057 
	C513.953003,18.688400 487.249634,34.349163 460.446411,49.837044 
	C439.408600,61.993484 418.193390,73.842796 397.146759,85.984169 
	C374.961945,98.782135 352.914337,111.817772 330.749756,124.651093 
	C310.429901,136.416306 290.013641,148.014862 269.677734,159.752548 
	C251.422699,170.289154 233.242249,180.955017 214.986191,191.489853 
	C198.571945,200.961868 182.063980,210.271652 165.662735,219.765915 
	C147.991440,229.995392 130.441727,240.435135 112.755089,250.637756 
	C94.385216,261.234497 75.878304,271.593536 57.499664,282.175201 
	C41.330082,291.484955 25.257469,300.963074 9.135407,310.355469 
	C6.613405,311.824677 4.056056,313.233215 1.257526,314.334900 
	C1.000000,209.720123 1.000000,105.440247 1.000000,1.000000 
	C181.020859,1.000000 361.041779,1.000000 541.531372,0.999994 
z"/>
<path fill="#E55B2D" opacity="1.000000" stroke="none" 
	d="
M1.000001,316.468658 
	C24.929905,329.731995 48.869408,343.447327 72.786865,357.200958 
	C93.969513,369.382019 115.127678,381.605621 136.632187,394.419220 
	C136.985214,447.296356 137.002731,499.564667 137.020248,551.833008 
	C124.255226,544.619324 111.458992,537.460144 98.732941,530.178284 
	C82.174408,520.703613 65.662979,511.146484 49.147621,501.596527 
	C35.595036,493.759766 22.074251,485.867950 8.519399,478.035126 
	C6.258848,476.728851 3.896390,475.598907 1.290511,474.693726 
	C1.000000,422.312439 1.000000,369.624878 1.000001,316.468658 
z"/>
<path fill="#E55B2D" opacity="1.000000" stroke="none" 
	d="
M409.087616,1023.820374 
	C399.305054,1018.301025 389.478912,1012.857239 379.750336,1007.244324 
	C365.888580,999.246704 352.120453,991.086975 338.271515,983.066956 
	C324.443848,975.059143 310.552063,967.162170 296.715973,959.168884 
	C289.793274,955.169495 283.043030,950.853882 275.983459,947.118469 
	C273.455231,945.780701 272.946075,944.322266 272.955109,941.791687 
	C273.033264,919.801636 273.000580,897.811096 272.999939,875.820740 
	C272.996063,742.212524 272.991974,608.604309 273.146545,474.241943 
	C273.804504,473.052673 274.248260,472.521362 274.811127,472.196259 
	C316.175385,448.306519 357.545441,424.426758 398.929565,400.571350 
	C401.980896,398.812439 405.139069,397.238892 409.051666,395.149811 
	C409.051666,398.267365 409.051697,400.239990 409.051697,402.212646 
	C409.051727,449.356873 409.037720,496.501129 409.091461,543.645264 
	C409.094269,546.097656 409.674103,548.549438 410.128723,551.311157 
	C422.437500,558.809448 434.544830,566.098450 446.779297,573.167419 
	C479.779541,592.234802 512.833862,611.208374 545.891479,630.668091 
	C545.931824,680.800781 545.935852,730.484558 545.997925,780.168274 
	C546.000977,782.621094 546.509094,785.073242 546.781982,787.525696 
	C546.781982,787.525696 546.735413,787.799805 546.256836,787.575684 
	C509.600647,766.508484 473.424225,745.663391 437.244537,724.823975 
	C428.232483,719.632996 419.209961,714.460083 409.087616,708.644226 
	C409.087616,814.537231 409.087616,919.178833 409.087616,1023.820374 
z"/>
<path fill="#ED8E24" opacity="1.000000" stroke="none" 
	d="
M409.985291,551.001465 
	C409.674103,548.549438 409.094269,546.097656 409.091461,543.645264 
	C409.037720,496.501129 409.051727,449.356873 409.051697,402.212646 
	C409.051697,400.239990 409.051666,398.267365 409.051666,395.149811 
	C405.139069,397.238892 401.980896,398.812439 398.929565,400.571350 
	C357.545441,424.426758 316.175385,448.306519 274.811127,472.196259 
	C274.248260,472.521362 273.804504,473.052673 273.118042,473.778381 
	C256.629089,483.534515 240.353333,493.045380 224.017899,502.452606 
	C207.808640,511.787170 191.527023,520.996033 175.300232,530.300232 
	C162.761658,537.489624 150.258789,544.741272 137.380142,551.899109 
	C137.002731,499.564667 136.985214,447.296356 136.944611,394.570068 
	C148.786987,387.407135 160.695679,380.777435 172.509781,373.983215 
	C208.574402,353.242676 244.614624,332.459625 280.641357,311.653290 
	C313.209625,292.844299 345.734985,273.960999 378.302460,255.150589 
	C414.472351,234.259506 450.670074,213.416611 486.852600,192.547363 
	C505.016113,182.071106 523.169678,171.577682 541.338989,161.111374 
	C542.625488,160.370285 544.003967,159.788986 545.680298,159.564178 
	C546.043274,212.357544 546.065674,264.720062 546.088013,317.082611 
	C546.063049,368.717865 546.038086,420.353149 545.730591,472.602173 
	C521.795593,486.815186 498.148590,500.424072 474.488831,514.010742 
	C452.994873,526.353577 431.487030,538.672180 409.985291,551.001465 
z"/>
<path fill="#E55B2D" opacity="1.000000" stroke="none" 
	d="
M546.445435,317.058533 
	C546.065674,264.720062 546.043274,212.357544 546.037720,159.533401 
	C559.375977,166.606781 572.751709,174.047638 586.009949,181.692230 
	C663.071106,226.125275 740.104614,270.606232 817.525879,315.637360 
	C817.942139,368.414093 817.980042,420.624451 818.017944,472.834808 
	C811.996277,469.699982 805.859924,466.765350 799.974243,463.393127 
	C781.730835,452.940308 763.578003,442.329376 745.399048,431.764099 
	C729.322754,422.420807 713.285278,413.010559 697.181885,403.714264 
	C680.942871,394.339691 664.621521,385.107727 648.377991,375.740936 
	C634.683777,367.844177 621.072876,359.802826 607.382324,351.899658 
	C591.144287,342.525940 574.857544,333.236664 558.598389,323.899414 
	C554.653442,321.633942 550.734070,319.323944 546.445435,317.058533 
z"/>
<path fill="#ED8E24" opacity="1.000000" stroke="none" 
	d="
M409.444275,1023.882202 
	C409.087616,919.178833 409.087616,814.537231 409.087616,708.644226 
	C419.209961,714.460083 428.232483,719.632996 437.244537,724.823975 
	C473.424225,745.663391 509.600647,766.508484 546.119507,787.597290 
	C546.307251,789.640564 546.020508,791.437988 546.019592,793.235535 
	C545.995239,842.028137 545.912170,890.821106 546.136414,939.612671 
	C546.158875,944.487976 544.319458,946.786560 540.408203,949.008545 
	C519.929321,960.642578 499.620026,972.574585 479.195526,984.304993 
	C456.095123,997.572205 432.935059,1010.735474 409.444275,1023.882202 
z"/>
<path fill="#ED8E24" opacity="1.000000" stroke="none" 
	d="
M818.381226,472.898010 
	C817.980042,420.624451 817.942139,368.414093 817.853027,315.769409 
	C830.989807,307.923279 844.232300,300.606567 857.354980,293.080872 
	C889.680542,274.542480 921.950989,255.908157 954.544006,237.158829 
	C954.896301,267.464233 954.960632,297.923248 954.995789,328.382263 
	C955.018982,348.524017 954.870178,368.667358 955.100769,388.806488 
	C955.151978,393.279694 953.928711,395.663635 949.774109,397.884430 
	C937.318726,404.542419 925.236267,411.898468 913.012878,418.989990 
	C896.713806,428.445923 880.461060,437.982574 864.110352,447.348297 
	C849.042053,455.979553 833.870605,464.430695 818.381226,472.898010 
z"/>
<path fill="#F8BF3C" opacity="1.000000" stroke="none" 
	d="
M410.128723,551.311157 
	C431.487030,538.672180 452.994873,526.353577 474.488831,514.010742 
	C498.148590,500.424072 521.795593,486.815186 545.766968,473.064087 
	C553.582581,477.011292 561.147217,480.991791 568.561584,485.234863 
	C582.893677,493.436768 597.125549,501.813629 611.427185,510.069122 
	C633.987915,523.092224 656.575867,536.068298 679.132996,549.097656 
	C680.114136,549.664368 680.902893,550.563904 681.506958,551.806824 
	C668.824341,559.422791 656.405823,566.522400 644.009888,573.661377 
	C611.290344,592.504883 578.580444,611.365417 545.866760,630.219177 
	C512.833862,611.208374 479.779541,592.234802 446.779297,573.167419 
	C434.544830,566.098450 422.437500,558.809448 410.128723,551.311157 
z"/>
<path fill="#ED8E24" opacity="1.000000" stroke="none" 
	d="
M545.891479,630.668091 
	C578.580444,611.365417 611.290344,592.504883 644.009888,573.661377 
	C656.405823,566.522400 668.824341,559.422791 681.532654,552.151489 
	C681.888489,577.309326 681.966431,602.620972 681.993835,627.932556 
	C682.021790,653.747498 681.955811,679.562622 682.054688,705.377197 
	C682.067383,708.687927 681.231873,710.401917 677.992615,712.177185 
	C663.885559,719.908264 650.110168,728.243408 636.192261,736.321289 
	C623.122070,743.907166 610.032349,751.459412 596.936890,759.001587 
	C581.303345,768.005554 565.657043,776.987305 550.005981,785.960693 
	C549.164307,786.443237 548.227661,786.760254 547.058594,787.339966 
	C546.509094,785.073242 546.000977,782.621094 545.997925,780.168274 
	C545.935852,730.484558 545.931824,680.800781 545.891479,630.668091 
z"/>
</svg>