<svg version="1.1" id="Layer_1" xmlns="http://www.w3.org/2000/svg" xmlns:xlink="http://www.w3.org/1999/xlink" x="0px" y="0px"
	 width="51" height="50" viewBox="0 0 480 496" enable-background="new 0 0 480 496" xml:space="preserve">
<path fill="#000000" opacity="1.000000" stroke="none" 
	d="
M293.048584,316.094391 
	C270.254913,314.904602 247.890472,313.852844 226.705521,305.765930 
	C199.650040,295.437988 178.844208,277.405151 162.828827,253.453735 
	C147.733612,230.878510 137.189209,206.461655 131.819504,179.815613 
	C130.632095,173.923340 128.671219,168.249054 126.201096,162.760162 
	C122.599136,154.756165 123.913429,148.541992 130.710190,142.726868 
	C132.809082,140.931122 134.418030,139.441818 134.220093,136.199631 
	C133.982788,132.312561 136.943939,130.520172 140.395050,129.392776 
	C147.936432,126.929199 148.289032,126.277443 146.672745,118.327095 
	C146.276596,116.378426 147.015350,115.116714 148.412903,114.014343 
	C149.981689,112.776886 151.653870,111.652496 153.111710,110.296791 
	C155.091034,108.456161 155.608734,106.391228 153.407791,104.259491 
	C152.810715,103.681190 152.227829,103.081566 151.696106,102.443657 
	C149.604370,99.934166 148.566574,96.987442 150.537796,94.198051 
	C153.067490,90.618385 157.098053,91.093300 160.584747,92.212952 
	C163.676575,93.205788 165.114975,95.855164 164.694748,99.357666 
	C163.865067,106.272903 164.432388,106.895439 171.328568,106.653725 
	C175.825546,106.496101 180.416382,105.824898 179.724152,112.846832 
	C179.563980,114.471596 181.482086,115.402153 182.921631,115.541565 
	C190.744461,116.299095 197.105682,119.988663 203.210968,124.662933 
	C209.784424,129.695633 217.873581,131.640121 225.462296,134.584610 
	C229.962616,136.330765 234.474442,138.188812 237.738327,141.993362 
	C238.804749,143.236435 240.130020,144.725143 239.125412,146.440674 
	C238.207352,148.008377 236.257965,148.311523 234.650497,147.945648 
	C230.764313,147.061111 226.962753,145.812500 223.101105,144.810715 
	C217.664368,143.400284 214.061523,145.717209 214.569031,151.114975 
	C216.480560,171.445282 215.851120,192.188217 221.959946,211.903259 
	C235.663101,256.127563 266.500793,281.542328 311.062531,291.404053 
	C313.800903,292.010071 315.506012,290.780457 317.072510,288.869720 
	C319.838776,285.495514 322.927368,282.493286 326.834412,280.424530 
	C329.200806,279.171570 331.669434,278.565186 333.824005,280.494019 
	C336.337708,282.744415 334.104095,284.728912 332.989838,286.639435 
	C330.079529,291.629578 330.556091,292.480286 336.132904,292.815460 
	C338.598145,292.963654 341.025940,293.679718 343.480652,294.076660 
	C345.111572,294.340393 347.143219,295.216095 348.337555,294.580872 
	C355.371216,290.839813 362.549530,295.079102 369.627411,293.877045 
	C372.797363,293.338654 376.023193,294.233002 376.457550,298.590668 
	C376.900696,303.036255 374.117706,304.667450 370.553772,305.079834 
	C362.228058,306.043304 354.498749,309.483887 345.783997,309.471802 
	C338.530487,309.461731 331.483948,313.117401 323.896515,313.761902 
	C313.782043,314.621155 303.720886,316.090454 293.048584,316.094391 
M219.856033,220.925888 
	C218.420288,215.316269 216.984543,209.706665 215.618179,204.368149 
	C213.856720,203.438690 213.226532,206.174713 211.510361,204.737091 
	C210.098236,201.692871 212.435272,199.466766 214.232040,196.963730 
	C210.463959,196.986252 209.993576,195.237747 211.495056,192.804459 
	C212.349182,191.420288 214.351746,190.203827 213.498489,188.561325 
	C211.316879,184.361801 212.871628,180.083008 212.627304,175.858063 
	C212.460236,172.969025 212.203094,170.119263 208.000885,172.003235 
	C207.013275,172.446030 205.950363,172.420746 205.307709,171.449265 
	C203.087891,168.093597 204.508438,164.738403 205.423691,161.390213 
	C206.469025,157.566147 209.136703,160.439987 210.943436,160.280746 
	C212.946167,152.130356 211.043640,149.916718 203.648743,151.440765 
	C202.020798,151.776260 200.390274,152.134338 198.742950,152.332779 
	C195.793198,152.688126 193.629730,153.745926 194.300262,157.596375 
	C187.055573,155.624344 181.848907,158.776642 176.845490,162.624710 
	C175.099854,163.967224 173.055756,165.033249 170.907730,165.038284 
	C166.027542,165.049713 165.681595,166.980713 167.596954,170.910187 
	C169.750397,175.328171 168.785553,177.341431 164.035660,178.386261 
	C160.866776,179.083298 159.454483,181.539368 157.611664,183.569336 
	C156.307053,185.006424 157.145554,186.642227 158.620483,187.269745 
	C161.684357,188.573318 165.455460,187.520996 166.453156,185.160904 
	C168.541077,180.221848 172.961700,179.138901 176.813583,176.831299 
	C176.633881,174.814819 176.452118,172.775238 176.247131,170.474976 
	C183.920120,174.501007 183.920120,174.501007 182.006027,187.039139 
	C173.308182,184.073288 174.292862,193.915573 168.237976,196.222900 
	C171.605316,197.308762 174.040436,196.929871 175.959030,198.511200 
	C174.675400,200.179764 172.944946,201.677719 174.137360,204.419571 
	C178.218994,201.962570 181.329971,199.146179 181.257721,194.064987 
	C186.636765,195.273682 190.169312,197.807877 192.346664,202.010910 
	C193.632782,204.493561 193.091980,207.266022 190.565750,207.564774 
	C186.338425,208.064743 184.618698,211.228394 181.766586,213.613510 
	C184.017426,216.096741 185.494141,218.816940 185.853638,222.079483 
	C186.211517,225.327347 188.614258,226.666382 191.164719,225.545914 
	C194.487534,224.086166 197.335464,225.841171 200.384018,225.876541 
	C204.071777,225.919357 209.823914,234.435074 207.943024,237.161072 
	C203.727921,243.270004 207.764664,244.249680 212.243362,245.884903 
	C217.769684,247.902649 219.664383,253.180649 217.106064,258.802002 
	C226.811005,262.883118 235.921112,267.811676 242.943069,276.059601 
	C247.176712,281.032379 246.556503,289.761932 255.593750,291.330078 
	C257.870209,291.725098 259.712616,294.113922 262.359863,292.000488 
	C263.145752,291.373077 264.261414,291.596252 265.182037,291.384399 
	C273.684174,289.428223 281.096680,292.627991 288.714294,295.676392 
	C292.788788,297.306885 297.194977,298.729858 301.924713,297.948120 
	C297.530945,295.743134 293.589355,292.776825 288.679382,291.910675 
	C284.291260,291.136536 280.390778,289.323700 277.368591,286.015747 
	C275.031982,283.458191 272.205902,281.985413 268.950012,280.945892 
	C261.558838,278.586029 254.881546,275.091858 249.691452,269.005707 
	C247.636734,266.596252 248.048248,263.158508 245.786179,261.092590 
	C240.779892,256.520416 237.561630,250.695374 233.985962,245.084793 
	C232.860550,243.318924 231.177689,241.205643 229.361130,240.726974 
	C225.395691,239.682007 222.902084,236.394989 221.285294,233.834320 
	C219.268784,230.640549 215.265121,226.201828 219.856033,220.925888 
M175.229645,143.435272 
	C173.413025,143.934036 171.103073,145.510391 171.428314,141.464249 
	C166.931564,142.646179 162.617783,143.837357 158.271835,144.896591 
	C156.287491,145.380264 153.469528,144.692734 153.560562,147.963486 
	C153.658524,151.482895 154.687653,155.165024 157.683182,156.944458 
	C159.904343,158.263916 162.760223,157.086319 164.050827,154.603622 
	C163.664200,151.698944 160.221039,152.163559 159.744614,149.803131 
	C167.166779,143.820969 165.813492,142.907181 170.236389,146.929337 
	C169.864090,148.468582 167.065140,149.200714 168.301895,151.438126 
	C168.882660,152.488815 169.794983,152.761505 170.828186,152.283676 
	C179.377335,148.329819 188.910065,150.139755 197.707047,147.670334 
	C203.429108,146.064072 209.628479,145.586777 214.429352,141.689255 
	C216.313721,140.159454 219.164978,137.466919 216.259048,135.125259 
	C214.106613,133.390778 210.716202,132.528854 208.222946,136.320938 
	C205.222610,140.884216 198.562103,141.045502 195.489700,137.083420 
	C194.083710,135.270279 184.628983,136.200089 183.590271,138.261047 
	C184.021164,139.518234 186.249130,139.168762 186.041611,141.123260 
	C183.305725,144.639664 178.981995,141.162155 175.229645,143.435272 
M188.040543,249.382797 
	C190.544861,250.470703 192.565994,253.100006 195.727707,252.175491 
	C196.032379,250.864716 195.276718,250.359131 194.875397,249.664886 
	C192.804321,246.082077 188.230530,243.887756 189.845749,238.235992 
	C190.507355,235.921021 187.372757,235.102875 185.154556,236.200531 
	C181.875885,237.822937 181.963318,240.466187 183.650909,243.241257 
	C184.835861,245.189804 187.030457,246.443314 188.040543,249.382797 
M182.384018,224.911209 
	C179.964691,219.225204 174.057663,222.133270 169.902893,218.597916 
	C171.165787,224.265488 178.481857,228.634308 183.887985,228.081345 
	C184.032318,226.981079 183.341446,226.232666 182.384018,224.911209 
M142.496689,159.123001 
	C144.703064,159.971100 146.790131,160.173889 147.748825,157.436005 
	C149.202988,153.283188 144.929718,153.516388 143.413513,151.483246 
	C140.164154,153.582199 137.250809,155.437149 142.496689,159.123001 
M180.978653,134.451294 
	C185.578415,133.788452 185.049896,129.257843 183.975616,127.692917 
	C181.969467,124.770462 179.187668,127.562767 176.683380,128.596863 
	C177.419937,131.027222 178.936295,132.552429 180.978653,134.451294 
M193.649368,263.616760 
	C196.598923,266.405029 199.819290,267.683868 204.524933,265.355042 
	C200.624847,263.477844 197.784775,260.662201 193.649368,263.616760 
M170.610779,121.960701 
	C172.020065,123.301003 173.226852,125.053062 175.846756,124.429939 
	C176.301819,122.968575 176.024170,121.467064 175.376480,120.191406 
	C174.519196,118.502907 172.728516,118.165573 171.046463,118.425812 
	C168.939423,118.751793 169.515060,120.130814 170.610779,121.960701 
M181.599411,270.844513 
	C183.146454,272.045074 184.693497,273.245636 186.240540,274.446228 
	C186.534103,274.064728 186.827667,273.683228 187.121231,273.301727 
	C182.717941,270.955200 180.991440,265.798035 176.512299,263.490021 
	C176.944855,266.693115 179.322845,268.306549 181.599411,270.844513 
M163.513260,195.470062 
	C163.667450,193.858643 163.013428,192.800735 161.323822,193.023666 
	C160.086807,193.186890 159.269363,194.326569 159.152222,195.449280 
	C158.932617,197.553909 160.235092,198.593842 162.249817,199.103271 
	C162.661163,197.920975 162.982666,196.996948 163.513260,195.470062 
M190.024368,278.384796 
	C191.910904,279.878815 193.021088,282.677246 196.708603,282.266266 
	C195.463165,278.256500 191.720032,278.649017 189.375778,277.113281 
	C189.392105,277.270050 189.381119,277.436493 189.432266,277.580902 
	C189.485291,277.730621 189.598526,277.858948 190.024368,278.384796 
z"/>
<path fill="#000000" opacity="1.000000" stroke="none" 
	d="
M336.154236,372.962830 
	C336.214752,376.781006 336.253876,380.107880 336.361877,383.432526 
	C336.376404,383.880096 336.737579,384.316406 337.229187,385.398315 
	C342.625977,382.980347 346.624420,379.193054 350.114441,375.112579 
	C349.502197,373.340973 348.386444,373.322418 347.490662,372.954620 
	C345.839935,372.276947 344.425415,371.355896 345.037170,369.263458 
	C345.583527,367.394745 347.183899,367.537140 348.727783,367.573578 
	C355.050385,367.722839 361.374908,367.794250 367.696838,367.964447 
	C369.698547,368.018311 372.089935,368.070526 372.273529,370.722534 
	C372.462433,373.450867 369.991608,373.767670 368.064514,373.953461 
	C361.948029,374.543152 357.161987,377.743774 352.568970,381.421478 
	C350.299652,383.238586 349.554291,385.350616 351.261078,387.935852 
	C355.401031,394.206604 359.891510,400.183136 365.799866,404.941162 
	C367.931305,406.657654 370.332245,407.662872 373.115448,407.758240 
	C374.805145,407.816132 376.107666,408.651642 376.006470,410.485229 
	C375.910339,412.226746 374.587158,413.077179 372.945435,413.211090 
	C368.971588,413.535339 364.993927,413.888428 361.011322,414.001007 
	C358.667969,414.067230 357.107819,412.435059 355.622589,410.783386 
	C351.272644,405.946228 347.313507,400.817810 343.765289,395.364685 
	C342.886871,394.014679 342.124573,392.167877 340.003510,392.821472 
	C337.995453,393.440277 336.654449,394.778473 336.249878,397.038055 
	C335.100159,403.458893 336.424469,405.806946 342.929535,408.356873 
	C344.207275,408.857727 345.551178,409.295959 345.437714,410.990265 
	C345.301147,413.029785 343.724823,413.167206 342.167389,413.208344 
	C335.847992,413.375244 329.528809,413.560455 323.208405,413.673309 
	C321.727814,413.699707 320.017944,413.722229 319.426331,411.952789 
	C318.824188,410.151764 320.092773,409.197540 321.511871,408.498291 
	C324.817688,406.869507 325.661926,403.972443 325.660309,400.609131 
	C325.652435,383.963165 325.616150,367.317078 325.672638,350.671326 
	C325.685791,346.792572 324.246735,344.095093 320.765625,342.162506 
	C316.742767,339.929199 316.866791,338.062836 320.870789,336.007721 
	C323.088867,334.869263 325.430328,333.963257 327.611450,332.762299 
	C334.469269,328.986420 336.108704,329.867523 336.122498,337.514709 
	C336.143524,349.166748 336.144836,360.818817 336.154236,372.962830 
z"/>
<path fill="#000000" opacity="1.000000" stroke="none" 
	d="
M176.325272,347.947693 
	C176.152374,350.143738 176.655426,352.401123 174.179199,352.823029 
	C172.134811,353.171417 171.356384,351.311188 170.709579,349.815491 
	C168.731064,345.240356 165.039688,343.505005 160.361237,343.373230 
	C156.702026,343.270172 153.033890,343.389374 149.380493,343.200836 
	C145.378052,342.994324 143.471436,344.791840 143.458252,348.733551 
	C143.439331,354.392426 143.429657,360.051300 143.403152,365.710144 
	C143.385651,369.446625 145.077164,371.222870 148.948425,370.876587 
	C151.263077,370.669556 153.610748,370.660156 155.934341,370.765594 
	C159.394012,370.922607 161.710999,369.762512 162.423462,366.097168 
	C162.789810,364.212463 163.596451,362.402191 166.037964,362.955170 
	C168.529312,363.519470 168.242340,365.634796 167.944702,367.412445 
	C167.086288,372.539001 167.290100,377.698517 167.212799,382.852936 
	C167.187500,384.538635 167.144287,386.456512 165.044434,386.814789 
	C162.903625,387.180115 162.427551,385.322998 161.775894,383.757660 
	C159.592514,378.512848 150.707153,375.429993 145.830002,378.109833 
	C143.689850,379.285767 143.571823,381.406219 143.517273,383.301544 
	C143.340195,389.454437 143.353531,395.616119 143.441559,401.772308 
	C143.503159,406.081055 146.606049,407.142731 150.148453,407.705505 
	C152.189972,408.029816 155.159195,407.944031 154.791824,410.921021 
	C154.446014,413.723297 151.538849,413.300690 149.462219,413.231140 
	C142.640869,413.002533 135.827469,412.730011 129.003387,413.214539 
	C127.399292,413.328461 125.414520,413.597290 124.829842,411.459198 
	C124.182724,409.092773 126.285744,408.901611 127.749931,408.248657 
	C130.703384,406.931641 131.874817,404.425140 131.883301,401.405457 
	C131.932434,383.929657 131.908920,366.453705 131.914291,348.977783 
	C131.915131,346.258850 130.767456,344.249054 128.479172,342.730255 
	C126.768562,341.594879 123.920700,340.722321 124.839394,338.071259 
	C125.883095,335.059418 128.787521,336.641602 130.945816,336.671753 
	C144.090607,336.855286 157.242294,337.307983 170.370392,336.355347 
	C176.993881,335.874695 177.784119,336.555450 176.734650,343.048828 
	C176.497101,344.518524 176.460403,346.020721 176.325272,347.947693 
z"/>
<path fill="#000000" opacity="1.000000" stroke="none" 
	d="
M257.354431,380.156891 
	C257.327911,386.459595 257.334564,392.284821 257.263702,398.109100 
	C257.215424,402.078278 258.033936,405.155029 263.038483,404.698090 
	C264.199249,404.592072 265.439026,404.745728 265.920776,406.122040 
	C266.299561,407.204285 265.692566,408.007324 265.050476,408.811920 
	C261.301483,413.509796 254.451614,414.663361 249.618530,411.024261 
	C247.477951,409.412506 245.965668,410.355194 244.155609,411.162140 
	C239.245468,413.351288 234.317307,415.113281 228.767487,413.454742 
	C224.232437,412.099457 221.820648,408.982513 220.986069,404.614502 
	C220.144684,400.210846 222.131729,396.837128 225.689331,394.365997 
	C230.440277,391.065948 235.925354,389.725037 241.469742,388.462341 
	C247.152313,387.168152 249.358276,381.752319 246.505447,376.589905 
	C244.203918,372.425110 238.974609,372.014099 236.401932,375.981262 
	C234.730011,378.559387 233.142014,381.005859 229.942764,381.809814 
	C227.600449,382.398438 225.557846,381.976868 224.330856,379.785767 
	C223.215225,377.793579 223.687973,375.744751 225.369843,374.352356 
	C232.482330,368.463989 240.537079,365.285736 249.855301,367.223083 
	C255.160889,368.326111 257.189850,372.132538 257.354431,380.156891 
M236.265030,406.552002 
	C237.588959,406.613678 238.925766,406.821899 240.234177,406.706970 
	C243.092865,406.455750 246.033325,406.026367 246.989746,402.707520 
	C247.826218,399.804871 248.575943,396.336975 246.317535,394.155151 
	C243.839645,391.761200 240.697189,393.942413 237.918625,394.818726 
	C237.296509,395.014923 236.723724,395.395294 236.158951,395.741058 
	C231.166061,398.797516 230.952194,402.402252 236.265030,406.552002 
z"/>
<path fill="#000000" opacity="1.000000" stroke="none" 
	d="
M193.814209,379.000000 
	C193.808075,369.338135 193.731476,360.175476 193.829056,351.014709 
	C193.871307,347.049194 192.907196,344.014618 189.088364,341.927765 
	C185.423645,339.925049 185.687622,338.013123 189.515976,336.009277 
	C192.317154,334.543060 195.196823,333.227661 198.023865,331.809875 
	C202.909149,329.359802 204.311249,330.145599 204.318634,335.565857 
	C204.347046,356.388275 204.427017,377.211609 204.258743,398.032745 
	C204.215485,403.385376 205.359131,407.214417 211.413467,407.979736 
	C212.910721,408.169006 214.357025,409.050079 213.999619,411.004120 
	C213.706970,412.604095 212.333221,413.047668 210.968170,413.070343 
	C204.309341,413.180969 197.649185,413.221161 190.989334,413.251556 
	C189.769577,413.257111 188.614975,412.906586 188.244003,411.558655 
	C187.879257,410.233368 188.543320,409.184540 189.693741,408.703125 
	C193.729004,407.014313 193.918961,403.669739 193.852173,399.988678 
	C193.728302,393.161133 193.815247,386.329773 193.814209,379.000000 
z"/>
<path fill="#000000" opacity="1.000000" stroke="none" 
	d="
M296.716522,406.956055 
	C299.809418,402.599243 299.454041,400.268372 295.242828,397.877228 
	C291.339355,395.660919 287.145294,393.957977 283.231659,391.757751 
	C276.813873,388.149750 274.663239,383.755188 275.844482,377.402344 
	C276.800385,372.261169 281.672913,367.864868 287.936157,366.996887 
	C291.043457,366.566284 294.254242,366.659729 297.404633,366.807007 
	C305.151947,367.169250 306.388763,368.419891 307.475769,376.206177 
	C307.705292,377.850433 308.414276,379.596558 306.297150,380.507477 
	C304.399017,381.324188 303.106598,380.180023 301.998077,378.864929 
	C299.087250,375.411652 295.721252,372.932709 290.904785,373.152222 
	C288.443176,373.264404 286.116272,373.616882 285.375641,376.404144 
	C284.661469,379.092010 286.162506,380.997406 288.320587,382.166870 
	C291.827728,384.067352 295.495941,385.669159 299.082764,387.424377 
	C306.682343,391.143219 310.015930,396.196930 309.003937,402.421906 
	C307.953400,408.884003 302.216644,413.510986 294.156158,414.238312 
	C288.975616,414.705811 283.836182,414.179138 278.812439,412.884338 
	C274.349915,411.734283 271.692932,404.460358 274.354156,400.749023 
	C276.014343,398.433685 277.603027,399.708221 278.730103,401.317810 
	C283.185516,407.680695 289.286865,408.854584 296.716522,406.956055 
z"/>
<path fill="#000000" opacity="1.000000" stroke="none" 
	d="
M199.954254,194.788147 
	C200.454437,193.557526 200.868042,192.698669 201.305695,191.789902 
	C207.066711,196.383972 208.421097,202.200546 204.558121,207.366302 
	C200.946884,203.948257 199.271851,200.050415 199.954254,194.788147 
z"/>
<path fill="#000000" opacity="1.000000" stroke="none" 
	d="
M237.706131,255.373383 
	C240.238571,257.203430 241.680267,259.290771 241.506348,262.260742 
	C237.171600,261.157990 235.678635,258.571716 237.706131,255.373383 
z"/>
</svg>