<svg version="1.1" id="Layer_1" xmlns="http://www.w3.org/2000/svg" xmlns:xlink="http://www.w3.org/1999/xlink" x="0px" y="0px"
	 width="51" height="50" viewBox="0 0 1024 640" enable-background="new 0 0 1024 640" xml:space="preserve">
<path fill="#000000" opacity="1.000000" stroke="none" 
	d="
M508.640717,153.618195 
	C524.065308,140.660767 540.635864,129.458832 552.653687,113.331245 
	C569.621277,90.561333 577.321960,65.305672 572.805359,36.849106 
	C572.623169,35.700817 572.554077,34.527985 572.529541,33.364536 
	C572.519775,32.900974 572.774414,32.431839 572.965149,31.769339 
	C575.762878,31.572496 576.545349,33.847519 577.571350,35.568653 
	C581.946289,42.907871 583.046631,51.243088 584.208557,59.442631 
	C589.313965,95.470001 577.061035,125.052734 550.786011,149.613373 
	C533.268494,165.987930 515.695496,182.329300 499.113464,199.671356 
	C490.711670,208.458237 483.081696,217.874023 475.984375,227.801834 
	C463.829498,244.804092 463.214508,262.288635 471.169281,281.118591 
	C480.833008,303.993927 493.848938,324.827362 508.128204,344.983429 
	C509.086639,346.336365 511.010315,347.479950 509.982269,349.654205 
	C508.683594,350.054077 508.044830,349.180573 507.367126,348.488251 
	C485.668152,326.322449 464.623230,303.597961 447.261200,277.749451 
	C443.819855,272.625977 440.948669,267.177582 438.167877,261.666016 
	C432.072723,249.585190 432.606018,237.639755 438.371826,225.642532 
	C444.770660,212.328171 454.623047,201.701614 465.059204,191.605347 
	C478.836060,178.277145 493.602142,166.054810 508.640717,153.618195 
z"/>
<path fill="#000000" opacity="1.000000" stroke="none" 
	d="
M305.554443,546.458862 
	C321.106171,537.370361 338.050812,533.833252 355.112396,530.720825 
	C363.803711,529.135254 372.573914,528.226379 381.432281,528.658813 
	C382.867676,528.728882 384.421356,528.236877 386.019531,529.599060 
	C382.781403,531.892151 379.011353,531.542847 375.597992,532.228271 
	C364.002747,534.556580 352.399384,536.816895 341.701843,542.149231 
	C337.518860,544.234253 332.316559,546.509155 332.726807,551.729431 
	C333.123016,556.770996 338.731110,558.052612 342.897095,559.365723 
	C357.552643,563.984985 372.757172,565.875427 387.949249,567.719910 
	C406.451019,569.966125 425.025848,571.387268 443.632874,572.338989 
	C458.952026,573.122498 474.308838,573.107117 489.608978,572.401611 
	C506.584656,571.618896 523.573730,571.778015 540.550354,570.823486 
	C563.970215,569.506592 587.374268,568.213501 610.731445,565.947815 
	C630.618408,564.018738 650.364197,561.422485 669.791077,556.671692 
	C674.650452,555.483337 679.418945,554.035156 684.028809,552.062073 
	C694.937195,547.393250 696.087891,545.667480 695.367371,534.711182 
	C703.313477,537.133728 705.752930,544.396423 700.376221,550.276062 
	C694.398315,556.813110 686.589172,560.712341 678.615356,564.138611 
	C657.498718,573.212341 635.201294,577.911377 612.600647,581.260742 
	C582.603149,585.706238 552.382263,587.269043 522.100281,588.487671 
	C493.769745,589.627747 465.443390,589.690796 437.137909,589.096191 
	C400.042480,588.316772 362.953583,586.615662 326.405670,579.302673 
	C318.726166,577.766052 311.132660,575.862183 303.984924,572.546509 
	C291.674591,566.836060 290.667053,558.390930 301.242706,549.646606 
	C302.524719,548.586609 303.912659,547.654724 305.554443,546.458862 
z"/>
<path fill="#000000" opacity="1.000000" stroke="none" 
	d="
M583.567383,191.585342 
	C571.181335,202.281113 559.193481,212.850357 551.547974,227.333359 
	C546.435974,237.017029 546.196411,246.551193 551.182983,256.455170 
	C557.046936,268.101929 565.339478,278.246063 571.331604,289.776733 
	C577.468933,301.586914 582.598022,313.677002 578.272644,327.444397 
	C575.772705,335.401703 571.068726,342.060242 565.527344,348.112152 
	C557.495483,356.883911 548.109131,364.060272 538.139343,370.486389 
	C537.102722,371.154541 536.094727,372.312012 534.472900,371.408722 
	C534.252991,368.986694 536.148743,367.567780 537.282654,365.877197 
	C541.090149,360.200500 544.821167,354.486786 547.703552,348.271393 
	C551.272766,340.575104 551.336853,332.928864 547.585938,325.202271 
	C542.233643,314.176910 534.400146,304.806519 527.567444,294.771698 
	C520.239746,284.009735 515.188965,272.446106 513.626404,259.387482 
	C511.354156,240.397034 517.868164,224.376007 529.949890,210.274185 
	C543.961670,193.919632 561.746338,182.577332 580.695862,172.876099 
	C598.380859,163.822235 616.851501,156.734741 635.855164,151.002045 
	C637.276794,150.573196 638.740723,150.274445 640.199097,149.986954 
	C640.444275,149.938614 640.761963,150.257950 642.201416,151.014999 
	C621.868958,163.917999 602.099060,176.582031 583.567383,191.585342 
z"/>
<path fill="#000000" opacity="1.000000" stroke="none" 
	d="
M429.524475,523.727722 
	C423.691895,521.565002 418.146362,519.731812 413.320496,516.325256 
	C403.151398,509.147003 403.134277,499.402435 413.431396,492.511078 
	C418.621704,489.037415 424.098694,486.074982 430.841522,485.750671 
	C428.744720,496.510742 429.766022,498.112671 440.467804,500.992920 
	C449.551453,503.437683 458.945221,503.322449 468.211792,503.579987 
	C491.006317,504.213501 513.815063,503.947449 536.524536,501.599854 
	C546.588074,500.559540 556.742798,499.769928 566.508362,496.837952 
	C570.482422,495.644806 573.797791,496.240936 577.316711,498.501709 
	C585.821533,503.965668 594.797607,508.623291 604.200439,513.301575 
	C576.209961,523.615234 547.720276,530.918030 517.884277,532.344421 
	C488.137482,533.766479 458.739777,531.742920 429.524475,523.727722 
z"/>
<path fill="#000000" opacity="1.000000" stroke="none" 
	d="
M389.725037,448.726318 
	C387.838623,443.990448 388.393646,439.776337 390.971161,435.993256 
	C397.353668,426.625519 407.042450,423.375732 417.635437,421.185547 
	C418.008057,424.132141 416.211487,425.167236 415.220978,426.594116 
	C411.711639,431.649506 412.513092,435.535645 417.870941,438.608887 
	C423.024963,441.565277 428.784882,443.001984 434.539459,443.455078 
	C451.113739,444.760132 467.665680,446.328552 484.381775,445.156921 
	C498.978912,444.133789 513.632812,443.961182 528.239807,442.776642 
	C545.978760,441.338104 563.646484,439.388000 581.144470,436.173981 
	C586.944397,435.108673 591.780884,435.524872 596.296082,439.837433 
	C600.882812,444.218353 606.734558,446.830322 612.702698,449.112640 
	C611.747192,451.871796 609.525940,451.841705 607.740906,452.384827 
	C581.391113,460.402130 554.596436,466.124207 527.012207,467.482086 
	C488.665924,469.369843 450.477631,468.140839 412.775940,460.223938 
	C404.402893,458.465698 395.752045,456.437683 389.725037,448.726318 
z"/>
<path fill="#000000" opacity="1.000000" stroke="none" 
	d="
M598.875977,379.704529 
	C611.203979,377.967865 623.084412,376.249603 635.061218,374.517365 
	C635.211548,377.098755 633.748657,377.494263 632.725586,378.239502 
	C632.323181,378.532623 631.831665,378.711670 631.454224,379.029816 
	C617.045898,391.176666 599.410034,393.181030 581.659790,395.361115 
	C557.905090,398.278656 534.154236,401.248169 510.293213,403.037567 
	C481.734741,405.179260 453.155792,405.604095 424.522034,403.578247 
	C406.106934,402.275360 387.716064,400.975647 369.453522,398.265259 
	C361.878815,397.141052 354.390900,395.494293 347.315796,392.443726 
	C339.615387,389.123474 338.967804,384.732635 345.759735,379.758545 
	C355.696228,372.481476 367.267365,368.561829 378.798737,364.698578 
	C396.517761,358.762390 414.758759,355.161804 433.278015,352.879700 
	C435.112030,352.653717 435.436737,352.732819 438.931366,354.107086 
	C432.534454,357.163757 426.014038,358.193787 419.839203,360.207977 
	C410.495483,363.255920 401.153473,366.303558 392.632324,371.324066 
	C389.497040,373.171265 385.392639,375.188812 385.830200,379.162018 
	C386.267975,383.137299 390.877502,383.517456 394.168427,384.358765 
	C405.836884,387.341705 417.854370,387.851044 429.778717,388.553711 
	C462.552826,390.484924 495.287079,389.804169 528.026917,386.976135 
	C551.541931,384.944916 575.028320,382.797577 598.875977,379.704529 
z"/>
<path fill="#000000" opacity="1.000000" stroke="none" 
	d="
M703.995850,590.104736 
	C682.817688,601.467773 660.149780,606.627319 637.043579,610.323242 
	C611.241699,614.450378 585.274292,616.763184 559.203186,618.587158 
	C527.041809,620.837097 494.950226,620.487732 462.892090,618.070862 
	C435.673340,616.018677 408.683075,612.018311 382.411896,604.196533 
	C380.763947,603.705933 378.732269,603.799561 377.199860,601.291321 
	C382.435699,600.329346 387.240814,601.633972 391.915253,602.063354 
	C415.451630,604.225281 439.015045,605.730652 462.624115,606.912109 
	C490.116669,608.288025 517.625671,608.414856 545.071655,607.482910 
	C591.011108,605.923096 636.757874,602.045227 680.910278,587.746887 
	C697.023743,582.528748 712.213684,575.454529 725.842468,565.258362 
	C726.738403,564.588074 727.545715,563.597961 728.887024,563.806458 
	C729.978699,570.643677 721.623413,579.526917 703.995850,590.104736 
z"/>
<path fill="#000000" opacity="1.000000" stroke="none" 
	d="
M647.208130,461.334991 
	C644.477661,462.042847 642.229919,463.249176 639.552307,462.944061 
	C639.799316,460.124908 642.096130,459.710968 643.648682,458.758850 
	C660.921631,448.166107 677.107849,436.221375 690.421021,420.792847 
	C698.609009,411.303925 705.096558,400.933960 705.062927,387.750916 
	C705.018799,370.446594 694.305786,358.502960 677.156555,356.238281 
	C670.670654,355.381775 664.269287,354.897736 657.792114,356.139618 
	C656.257324,356.433868 654.618103,356.183258 652.161316,356.183258 
	C654.548706,353.220459 657.118469,351.760010 659.842651,350.791595 
	C678.062195,344.314484 695.537415,345.396271 711.736328,356.617523 
	C731.419373,370.252380 735.902100,392.548950 722.959229,412.655334 
	C713.311890,427.642090 699.430298,437.863159 684.028259,446.248932 
	C672.427246,452.565186 660.186890,457.333679 647.208130,461.334991 
z"/>
</svg>