<svg version="1.1" id="Layer_1" xmlns="http://www.w3.org/2000/svg" xmlns:xlink="http://www.w3.org/1999/xlink" x="0px" y="0px"
	 width="51" height="50" viewBox="0 0 204 204" enable-background="new 0 0 204 204" xml:space="preserve">
<path fill="#FFFFFF" opacity="1.000000" stroke="none" 
	d="
M119.000000,205.000000 
	C79.357346,205.000000 40.214687,205.000000 1.036016,205.000000 
	C1.036016,137.065720 1.036016,69.131401 1.036016,1.098545 
	C68.892494,1.098545 136.785172,1.098545 204.838928,1.098545 
	C204.838928,68.999695 204.838928,136.999817 204.838928,205.000000 
	C176.465012,205.000000 147.982498,205.000000 119.000000,205.000000 
M96.061012,109.014954 
	C90.330284,109.014954 84.599548,109.014954 78.810432,109.014954 
	C78.810432,121.697838 78.780495,133.662750 78.861633,145.626907 
	C78.868904,146.699158 79.595581,147.766541 80.913437,148.986191 
	C86.290863,148.693619 91.668282,148.401031 97.819160,147.678726 
	C97.882607,135.432495 97.960503,123.186279 97.965660,110.940025 
	C97.965912,110.345055 97.327614,109.749825 96.061012,109.014954 
M97.825241,64.699509 
	C97.886627,52.453255 97.962456,40.207008 97.966011,27.960735 
	C97.966187,27.360281 97.334297,26.759642 96.069962,26.017460 
	C90.335838,26.017460 84.601715,26.017460 78.968155,26.017460 
	C78.968155,39.637028 78.968155,52.587082 78.968155,66.372108 
	C85.123749,65.948601 91.084953,65.538467 97.825241,64.699509 
M128.794449,181.627975 
	C128.794449,168.490814 128.794449,155.353638 128.794449,141.563232 
	C122.077721,142.033752 115.957939,142.462448 109.541039,143.664474 
	C109.541039,156.400772 109.541039,169.137085 109.541039,181.856949 
	C116.000732,181.856949 121.975685,181.856949 128.794449,181.627975 
M48.513889,192.993637 
	C48.672771,192.940308 48.831657,192.886963 49.914780,192.984894 
	C54.946827,192.934494 59.978870,192.884109 65.458260,192.974823 
	C65.458260,192.974823 65.916481,192.874512 66.524849,192.851730 
	C66.541870,192.506409 66.558891,192.161087 66.587341,190.903091 
	C66.587341,147.010864 66.587341,103.118629 66.587341,59.143524 
	C60.040413,59.143524 54.060013,59.143524 47.255161,59.412369 
	C47.162449,103.666214 47.067608,147.920059 47.020267,192.173950 
	C47.019939,192.481476 47.673645,192.789703 48.513889,192.993637 
M127.025101,59.008015 
	C121.278114,59.008015 115.531128,59.008015 109.491615,59.008015 
	C109.491615,72.038277 109.469582,84.493095 109.555435,96.947159 
	C109.559814,97.582428 110.491653,98.211304 111.915123,98.989861 
	C116.618454,98.938866 121.321785,98.887863 126.659332,98.985115 
	C127.088150,98.937134 127.516968,98.889153 128.780930,98.598145 
	C128.852463,86.049339 128.938690,73.500549 128.950531,60.951683 
	C128.951111,60.347958 128.296112,59.743614 127.025101,59.008015 
M128.921280,112.433754 
	C128.583984,112.054413 128.246689,111.675064 126.994278,111.155342 
	C121.113075,111.155342 115.231880,111.155342 109.148979,111.155342 
	C109.148979,117.466560 109.148979,123.206841 109.329430,129.736984 
	C115.489120,130.004425 121.648178,130.293930 127.810501,130.468521 
	C128.093582,130.476532 128.405945,129.451614 128.844635,127.995979 
	C128.811951,123.005890 128.779266,118.015800 128.921280,112.433754 
M140.361084,15.148868 
	C140.329971,15.785557 140.298859,16.422245 140.166000,17.983467 
	C140.161133,60.052250 140.147079,102.121040 140.188644,144.189789 
	C140.190140,145.697144 140.740753,147.203964 141.931488,148.977783 
	C147.257553,148.942535 152.583633,148.907303 158.598434,148.943390 
	C158.901932,148.524155 159.205429,148.104935 159.516266,146.790680 
	C159.521347,103.263268 159.526413,59.735851 159.830658,15.679889 
	C159.524185,15.491025 159.217712,15.302161 157.992188,15.005726 
	C152.347946,15.046945 146.703705,15.088163 140.361084,15.148868 
M79.955833,96.929207 
	C84.760033,96.951775 89.577644,97.177116 94.359459,96.861031 
	C95.629646,96.777077 97.762199,95.098076 97.836082,94.035774 
	C98.198746,88.821541 98.000671,83.568306 98.000671,78.298950 
	C91.037750,78.298950 84.676880,78.298950 77.495743,78.298950 
	C78.054161,84.613800 78.582008,90.582909 79.955833,96.929207 
z"/>
<path fill="#130754" opacity="1.000000" stroke="none" 
	d="
M157.909698,148.872070 
	C152.583633,148.907303 147.257553,148.942535 141.672455,148.491089 
	C141.608948,146.042084 141.973358,144.079926 141.975052,142.117447 
	C142.008591,103.478699 142.000000,64.839928 142.000000,26.201157 
	C142.000000,15.967975 142.006775,16.198013 152.244308,15.896227 
	C156.811874,15.761582 158.124283,17.055986 158.105652,21.702665 
	C157.936890,63.838089 158.023071,105.974525 158.013306,148.302643 
	C157.992020,148.494614 157.909698,148.872055 157.909698,148.872070 
z"/>
<path fill="#130754" opacity="1.000000" stroke="none" 
	d="
M65.010918,192.833710 
	C59.978870,192.884109 54.946827,192.934494 49.455666,192.451248 
	C49.000187,147.946777 49.003819,103.975960 49.474495,60.003487 
	C52.940147,60.001225 55.971565,60.281445 58.929863,59.935802 
	C63.658215,59.383358 65.133987,60.975697 65.111801,65.893379 
	C64.920868,108.206116 65.007278,150.520096 65.010918,192.833710 
z"/>
<path fill="#130754" opacity="1.000000" stroke="none" 
	d="
M97.045715,148.108444 
	C91.668282,148.401031 86.290863,148.693619 80.455353,148.453018 
	C79.998657,136.768448 80.118690,125.615074 79.931602,114.466850 
	C79.872856,110.966408 80.988342,109.720673 84.483047,109.939980 
	C88.628441,110.200111 92.801003,110.027283 96.976349,110.506416 
	C97.009186,123.349968 97.027451,135.729202 97.045715,148.108444 
z"/>
<path fill="#130754" opacity="1.000000" stroke="none" 
	d="
M126.025116,98.836868 
	C121.321785,98.887863 116.618454,98.938866 111.457275,98.457893 
	C110.999825,89.137444 111.000420,80.348969 111.000565,71.560486 
	C111.000763,59.642288 110.998955,59.755962 122.787849,59.927460 
	C126.025475,59.974560 127.116173,60.949257 127.062431,64.209457 
	C126.895744,74.321747 127.040169,84.438835 126.958694,94.553223 
	C126.947166,95.983521 126.350784,97.409103 126.025116,98.836868 
z"/>
<path fill="#00004D" opacity="1.000000" stroke="none" 
	d="
M158.034607,148.110672 
	C158.023071,105.974525 157.936890,63.838089 158.105652,21.702665 
	C158.124283,17.055986 156.811874,15.761582 152.244308,15.896227 
	C142.006775,16.198013 142.000000,15.967975 142.000000,26.201157 
	C142.000000,64.839928 142.008591,103.478699 141.975052,142.117447 
	C141.973358,144.079926 141.608948,146.042084 141.224426,148.357712 
	C140.740753,147.203964 140.190140,145.697144 140.188644,144.189789 
	C140.147079,102.121040 140.161133,60.052250 140.441330,17.361551 
	C140.830933,16.202885 140.945190,15.666132 141.059448,15.129382 
	C146.703705,15.088163 152.347946,15.046945 158.522049,15.267262 
	C159.057373,15.864250 159.217239,16.090796 159.531479,16.208435 
	C159.526413,59.735851 159.521347,103.263268 159.254486,147.259781 
	C158.673355,147.856155 158.353989,147.983414 158.034607,148.110672 
z"/>
<path fill="#FFCA00" opacity="1.000000" stroke="none" 
	d="
M79.532837,96.740616 
	C78.582008,90.582909 78.054161,84.613800 77.495743,78.298950 
	C84.676880,78.298950 91.037750,78.298950 98.000671,78.298950 
	C98.000671,83.568306 98.198746,88.821541 97.836082,94.035774 
	C97.762199,95.098076 95.629646,96.777077 94.359459,96.861031 
	C89.577644,97.177116 84.760033,96.951775 79.532837,96.740616 
z"/>
<path fill="#E70487" opacity="1.000000" stroke="none" 
	d="
M109.148979,128.947128 
	C109.148979,123.206841 109.148979,117.466560 109.148979,111.155342 
	C115.231880,111.155342 121.113075,111.155342 127.471107,111.477036 
	C128.214157,112.207718 128.480362,112.616714 128.746582,113.025711 
	C128.779266,118.015800 128.811951,123.005890 128.326721,128.469772 
	C121.588860,128.944748 115.368919,128.945938 109.148979,128.947128 
z"/>
<path fill="#000047" opacity="1.000000" stroke="none" 
	d="
M65.234589,192.904266 
	C65.007278,150.520096 64.920868,108.206116 65.111801,65.893379 
	C65.133987,60.975697 63.658215,59.383358 58.929863,59.935802 
	C55.971565,60.281445 52.940147,60.001225 49.260403,60.001305 
	C48.579266,60.000774 48.151257,59.997288 48.108681,59.785915 
	C48.066109,59.574543 48.079617,59.143524 48.079617,59.143524 
	C54.060013,59.143524 60.040413,59.143524 66.587341,59.143524 
	C66.587341,103.118629 66.587341,147.010864 66.393547,191.473297 
	C66.097534,192.317856 66.003105,192.594849 65.916481,192.874512 
	C65.916481,192.874512 65.458260,192.974823 65.234589,192.904266 
z"/>
<path fill="#000047" opacity="1.000000" stroke="none" 
	d="
M126.342224,98.910995 
	C126.350784,97.409103 126.947166,95.983521 126.958694,94.553223 
	C127.040169,84.438835 126.895744,74.321747 127.062431,64.209457 
	C127.116173,60.949257 126.025475,59.974560 122.787849,59.927460 
	C110.998955,59.755962 111.000763,59.642288 111.000565,71.560486 
	C111.000420,80.348969 110.999825,89.137444 110.995544,98.384537 
	C110.491653,98.211304 109.559814,97.582428 109.555435,96.947159 
	C109.469582,84.493095 109.491615,72.038277 109.491615,59.008015 
	C115.531128,59.008015 121.278114,59.008015 127.508156,59.533024 
	C127.976067,72.985748 127.960930,85.913460 127.945786,98.841171 
	C127.516968,98.889153 127.088150,98.937134 126.342224,98.910995 
z"/>
<path fill="#5D5E7F" opacity="1.000000" stroke="none" 
	d="
M47.667389,59.277946 
	C48.079617,59.143524 48.066109,59.574543 48.051849,60.251999 
	C48.032379,104.985504 48.027168,149.041565 48.021957,193.097610 
	C47.673645,192.789703 47.019939,192.481476 47.020267,192.173950 
	C47.067608,147.920059 47.162449,103.666214 47.667389,59.277946 
z"/>
<path fill="#00004E" opacity="1.000000" stroke="none" 
	d="
M48.267921,193.045624 
	C48.027168,149.041565 48.032379,104.985504 48.094425,60.463371 
	C48.151257,59.997288 48.579266,60.000774 48.793358,60.002956 
	C49.003819,103.975960 49.000187,147.946777 48.993549,192.375610 
	C48.831657,192.886963 48.672771,192.940308 48.267921,193.045624 
z"/>
<path fill="#000040" opacity="1.000000" stroke="none" 
	d="
M127.950645,181.856949 
	C121.975685,181.856949 116.000732,181.856949 109.541039,181.856949 
	C109.541039,169.137085 109.541039,156.400772 109.976898,143.335693 
	C110.606422,143.032776 110.800087,143.058624 110.996170,143.314453 
	C110.998596,143.544434 111.003098,144.005676 111.001076,144.473969 
	C110.998573,155.193802 111.162346,165.449280 110.915054,175.694839 
	C110.819016,179.673981 111.776573,181.483047 116.085587,181.070145 
	C119.690399,180.724731 123.354111,180.993866 127.223648,180.994507 
	C127.455559,180.998154 127.919411,181.003357 127.945221,181.216095 
	C127.971031,181.428833 127.950645,181.856949 127.950645,181.856949 
z"/>
<path fill="#000040" opacity="1.000000" stroke="none" 
	d="
M97.046150,65.128334 
	C91.084953,65.538467 85.123749,65.948601 78.968155,66.372108 
	C78.968155,52.587082 78.968155,39.637028 78.968155,26.017460 
	C84.601715,26.017460 90.335838,26.017460 96.529297,26.304234 
	C96.988625,26.591009 96.977592,27.022873 96.511826,27.012907 
	C92.069717,27.001175 88.088608,27.117672 84.118622,26.957821 
	C81.272392,26.843216 79.895027,27.592770 79.947159,30.800907 
	C80.105980,40.573532 80.102379,50.351921 79.948029,60.124691 
	C79.898605,63.253613 81.113342,64.167404 84.045204,64.044746 
	C88.345726,63.864826 92.658577,63.979824 96.984550,64.259064 
	C97.017334,64.742081 97.031738,64.935204 97.046150,65.128334 
z"/>
<path fill="#3E3E6B" opacity="1.000000" stroke="none" 
	d="
M128.372543,181.742462 
	C127.950645,181.856949 127.971031,181.428833 127.975533,180.747864 
	C127.980034,167.875137 127.980034,155.683395 127.980034,143.084488 
	C121.854843,143.084488 116.424301,143.084488 110.993752,143.084488 
	C110.800087,143.058624 110.606422,143.032776 110.125458,142.949036 
	C115.957939,142.462448 122.077721,142.033752 128.794449,141.563232 
	C128.794449,155.353638 128.794449,168.490814 128.372543,181.742462 
z"/>
<path fill="#00003B" opacity="1.000000" stroke="none" 
	d="
M96.961784,110.042099 
	C92.801003,110.027283 88.628441,110.200111 84.483047,109.939980 
	C80.988342,109.720673 79.872856,110.966408 79.931602,114.466850 
	C80.118690,125.615074 79.998657,136.768448 79.992714,148.378021 
	C79.595581,147.766541 78.868904,146.699158 78.861633,145.626907 
	C78.780495,133.662750 78.810432,121.697838 78.810432,109.014954 
	C84.599548,109.014954 90.330284,109.014954 96.521362,109.306778 
	C96.981720,109.598610 96.961784,110.042099 96.961784,110.042099 
z"/>
<path fill="#3E3E6B" opacity="1.000000" stroke="none" 
	d="
M128.363358,98.719666 
	C127.960930,85.913460 127.976067,72.985748 127.968796,59.598797 
	C128.296112,59.743614 128.951111,60.347958 128.950531,60.951683 
	C128.938690,73.500549 128.852463,86.049339 128.363358,98.719666 
z"/>
<path fill="#00002E" opacity="1.000000" stroke="none" 
	d="
M96.977592,27.022873 
	C96.977592,27.022873 96.988625,26.591009 96.992683,26.375050 
	C97.334297,26.759642 97.966187,27.360281 97.966011,27.960735 
	C97.962456,40.207008 97.886627,52.453255 97.435699,64.913925 
	C97.031738,64.935204 97.017334,64.742081 96.997650,63.793919 
	C96.987450,51.033539 96.982521,39.028206 96.977592,27.022873 
z"/>
<path fill="#00002E" opacity="1.000000" stroke="none" 
	d="
M96.976349,110.506416 
	C96.961784,110.042099 96.981720,109.598610 96.984192,109.376663 
	C97.327614,109.749825 97.965912,110.345055 97.965660,110.940025 
	C97.960503,123.186279 97.882607,135.432495 97.432434,147.893585 
	C97.027451,135.729202 97.009186,123.349968 96.976349,110.506416 
z"/>
<path fill="#EA4097" opacity="1.000000" stroke="none" 
	d="
M109.239204,129.342056 
	C115.368919,128.945938 121.588860,128.944748 128.256729,128.925659 
	C128.405945,129.451614 128.093582,130.476532 127.810501,130.468521 
	C121.648178,130.293930 115.489120,130.004425 109.239204,129.342056 
z"/>
<path fill="#EA4097" opacity="1.000000" stroke="none" 
	d="
M128.833923,112.729736 
	C128.480362,112.616714 128.214157,112.207718 127.928665,111.547218 
	C128.246689,111.675064 128.583984,112.054413 128.833923,112.729736 
z"/>
<path fill="#4F4D77" opacity="1.000000" stroke="none" 
	d="
M140.710266,15.139124 
	C140.945190,15.666132 140.830933,16.202885 140.492188,16.899284 
	C140.298859,16.422245 140.329971,15.785557 140.710266,15.139124 
z"/>
<path fill="#82809C" opacity="1.000000" stroke="none" 
	d="
M158.013321,148.302643 
	C158.353989,147.983414 158.673355,147.856155 159.250824,147.707291 
	C159.205429,148.104935 158.901932,148.524155 158.254059,148.907715 
	C157.909698,148.872055 157.992020,148.494614 158.013321,148.302643 
z"/>
<path fill="#82809C" opacity="1.000000" stroke="none" 
	d="
M159.681061,15.944162 
	C159.217239,16.090796 159.057373,15.864250 158.981567,15.321049 
	C159.217712,15.302161 159.524185,15.491025 159.681061,15.944162 
z"/>
<path fill="#797792" opacity="1.000000" stroke="none" 
	d="
M66.220665,192.863129 
	C66.003105,192.594849 66.097534,192.317856 66.387833,191.929642 
	C66.558891,192.161087 66.541870,192.506409 66.220665,192.863129 
z"/>
<path fill="#130754" opacity="1.000000" stroke="none" 
	d="
M126.991737,180.990875 
	C123.354111,180.993866 119.690399,180.724731 116.085587,181.070145 
	C111.776573,181.483047 110.819016,179.673981 110.915054,175.694839 
	C111.162346,165.449280 110.998573,155.193802 111.468231,144.471893 
	C115.575012,144.001419 119.223770,144.178024 122.846916,143.949188 
	C126.163239,143.739716 127.101921,145.069122 127.057068,148.253357 
	C126.903358,159.164001 126.994171,170.078094 126.991737,180.990875 
z"/>
<path fill="#00004E" opacity="1.000000" stroke="none" 
	d="
M127.223648,180.994507 
	C126.994171,170.078094 126.903358,159.164001 127.057068,148.253357 
	C127.101921,145.069122 126.163239,143.739716 122.846916,143.949188 
	C119.223770,144.178024 115.575012,144.001419 111.470261,144.003601 
	C111.003098,144.005676 110.998596,143.544434 110.996170,143.314453 
	C116.424301,143.084488 121.854843,143.084488 127.980034,143.084488 
	C127.980034,155.683395 127.980034,167.875137 127.949722,180.535126 
	C127.919411,181.003357 127.455559,180.998154 127.223648,180.994507 
z"/>
<path fill="#130754" opacity="1.000000" stroke="none" 
	d="
M96.511826,27.012907 
	C96.982521,39.028206 96.987450,51.033539 96.979279,63.504013 
	C92.658577,63.979824 88.345726,63.864826 84.045204,64.044746 
	C81.113342,64.167404 79.898605,63.253613 79.948029,60.124691 
	C80.102379,50.351921 80.105980,40.573532 79.947159,30.800907 
	C79.895027,27.592770 81.272392,26.843216 84.118622,26.957821 
	C88.088608,27.117672 92.069717,27.001175 96.511826,27.012907 
z"/>
</svg>