<svg version="1.1" id="Layer_1" xmlns="http://www.w3.org/2000/svg" xmlns:xlink="http://www.w3.org/1999/xlink" x="0px" y="0px"
	 width="51" height="50" viewBox="0 0 204 211" enable-background="new 0 0 204 211" xml:space="preserve">
<path fill="#FEFEFE" opacity="1.000000" stroke="none" 
	d="
M117.000000,212.000000 
	C78.397751,212.000000 39.795502,212.000000 1.000000,212.000000 
	C1.000000,163.312607 1.000000,114.624962 1.370233,65.621414 
	C4.828794,78.753021 7.497964,92.314621 11.118711,105.617210 
	C15.047597,120.051895 19.837664,134.291931 28.741161,146.612198 
	C37.642033,158.928833 46.261547,160.801727 59.513832,153.788971 
	C70.352455,162.172195 82.363190,162.358429 94.936401,158.560135 
	C95.307373,164.822800 95.384796,170.668106 96.048347,176.446075 
	C97.759590,191.346939 100.088242,206.006378 117.000000,212.000000 
z"/>
<path fill="#0E0E0E" opacity="1.000000" stroke="none" 
	d="
M117.458069,212.000000 
	C100.088242,206.006378 97.759590,191.346939 96.048347,176.446075 
	C95.384796,170.668106 95.307373,164.822800 94.936401,158.560135 
	C82.363190,162.358429 70.352455,162.172195 59.513832,153.788971 
	C46.261547,160.801727 37.642033,158.928833 28.741161,146.612198 
	C19.837664,134.291931 15.047597,120.051895 11.118711,105.617210 
	C7.497964,92.314621 4.828794,78.753021 1.370233,65.152756 
	C1.000000,63.611111 1.000000,62.222221 1.371215,60.225174 
	C1.764891,57.058727 1.787351,54.500439 1.860849,51.573631 
	C1.607924,50.136742 1.303962,49.068371 1.000000,48.000000 
	C1.000000,46.933331 1.000000,45.866661 1.363050,44.271881 
	C2.142368,41.969467 2.585644,40.201004 2.970756,38.419960 
	C7.128710,19.190512 20.012068,7.521956 39.444805,4.647810 
	C52.843536,2.666108 65.537834,5.620910 78.313484,8.778972 
	C80.076355,9.214742 82.348656,9.311314 83.908073,8.566353 
	C93.346077,4.057665 103.256821,2.459398 113.513397,3.792643 
	C121.987831,4.894228 130.058533,3.864580 138.000000,1.000000 
	C144.354401,1.000000 150.708786,1.000000 157.671204,1.374107 
	C162.786392,2.822623 167.535599,3.315903 171.757858,5.074442 
	C187.978516,11.830245 202.135971,20.715479 204.223831,40.529095 
	C204.243042,40.711300 204.730927,40.844120 205.000000,40.999996 
	C205.000000,42.388889 205.000000,43.777779 204.615021,45.743256 
	C201.771713,73.436157 192.179077,98.215225 178.504486,122.462845 
	C182.747604,121.858627 186.044312,121.570198 189.259338,120.893562 
	C195.895706,119.496872 201.274185,121.040771 205.000000,127.000000 
	C205.000000,129.041672 205.000000,131.083328 204.662628,133.653442 
	C198.228622,145.813354 187.458481,149.905930 175.475662,151.855408 
	C171.256836,152.541763 166.946106,152.663254 162.959930,153.017532 
	C161.889862,162.168121 161.238983,171.129013 159.725647,179.941788 
	C156.902908,196.379868 147.841339,207.371552 130.940613,210.918442 
	C129.929291,211.130707 128.978806,211.632782 128.000000,212.000000 
	C124.638710,212.000000 121.277428,212.000000 117.458069,212.000000 
M147.952637,196.372070 
	C153.406647,189.444336 153.961807,181.011414 155.101929,172.790039 
	C156.328629,163.944366 157.365097,155.072327 158.454147,146.452576 
	C161.714996,146.452576 164.519058,146.452866 167.323120,146.452530 
	C176.716934,146.451431 185.547363,144.493423 193.080795,138.554932 
	C196.279526,136.033417 200.794861,133.373306 198.618301,128.587845 
	C196.626358,124.208328 192.046021,126.221252 188.319260,126.668907 
	C181.995560,127.428482 175.582397,129.315125 169.195801,125.968292 
	C169.960617,124.724030 170.560486,123.746117 171.162247,122.769379 
	C184.111359,101.751694 193.573151,79.313522 197.268311,54.824505 
	C200.335190,34.499317 198.408478,25.179092 176.236145,13.032617 
	C160.489502,4.406269 143.655624,5.094053 126.686096,9.177543 
	C123.898010,9.848459 120.809914,10.012348 117.973236,9.611834 
	C106.538345,7.997323 95.483757,8.239476 85.033829,14.068755 
	C83.458153,14.947711 80.941742,15.027908 79.154106,14.494180 
	C68.110649,11.196959 56.971355,8.836417 45.354832,9.189779 
	C28.005497,9.717525 14.024403,19.170467 9.630258,35.054722 
	C7.498488,42.760788 6.463357,51.249065 7.190234,59.176125 
	C9.262286,81.773193 15.020150,103.667046 23.675791,124.644554 
	C26.744366,132.081436 30.673470,139.467468 35.641541,145.743271 
	C42.656208,154.604370 50.868744,154.146271 58.452343,145.787186 
	C61.697155,142.210556 64.999870,138.658478 67.926109,134.827759 
	C71.721786,129.858871 75.505753,125.694260 82.407791,129.770508 
	C83.281509,130.286514 84.555832,130.124207 86.007233,130.326782 
	C85.505302,131.257339 85.225471,131.827347 84.900642,132.370453 
	C81.448296,138.142654 75.159325,138.111511 69.702995,139.750061 
	C66.442390,140.729248 62.320927,141.758820 62.966946,145.703400 
	C63.397881,148.334671 66.663086,150.565338 68.833031,152.807693 
	C69.448486,153.443695 70.656654,153.551544 71.619370,153.799057 
	C81.612129,156.368210 90.960785,155.130539 99.737671,148.212357 
	C99.737671,152.309067 99.587791,155.603302 99.766174,158.879654 
	C100.272697,168.182938 100.418221,177.544006 101.629517,186.760925 
	C103.063484,197.672256 111.683334,206.172302 121.103271,206.529968 
	C131.094574,206.909317 140.215073,204.320236 147.952637,196.372070 
z"/>
<path fill="#FDFDFD" opacity="1.000000" stroke="none" 
	d="
M128.468658,212.000000 
	C128.978806,211.632782 129.929291,211.130707 130.940613,210.918442 
	C147.841339,207.371552 156.902908,196.379868 159.725647,179.941788 
	C161.238983,171.129013 161.889862,162.168121 162.959930,153.017532 
	C166.946106,152.663254 171.256836,152.541763 175.475662,151.855408 
	C187.458481,149.905930 198.228622,145.813354 204.662628,134.090942 
	C205.000000,159.926407 205.000000,185.852814 205.000000,212.000000 
	C179.646194,212.000000 154.291763,212.000000 128.468658,212.000000 
z"/>
<path fill="#F7F7F7" opacity="1.000000" stroke="none" 
	d="
M137.531342,1.000000 
	C130.058533,3.864580 121.987831,4.894228 113.513397,3.792643 
	C103.256821,2.459398 93.346077,4.057665 83.908073,8.566353 
	C82.348656,9.311314 80.076355,9.214742 78.313484,8.778972 
	C65.537834,5.620910 52.843536,2.666108 39.444805,4.647810 
	C20.012068,7.521956 7.128710,19.190512 2.970756,38.419960 
	C2.585644,40.201004 2.142368,41.969467 1.363050,43.871887 
	C1.000000,29.701586 1.000000,15.403173 1.000000,1.000000 
	C46.354176,1.000000 91.708427,1.000000 137.531342,1.000000 
z"/>
<path fill="#F9F9F9" opacity="1.000000" stroke="none" 
	d="
M205.000000,126.531342 
	C201.274185,121.040771 195.895706,119.496872 189.259338,120.893562 
	C186.044312,121.570198 182.747604,121.858627 178.504486,122.462845 
	C192.179077,98.215225 201.771713,73.436157 204.615021,46.159924 
	C205.000000,72.687561 205.000000,99.375122 205.000000,126.531342 
z"/>
<path fill="#FAFAFA" opacity="1.000000" stroke="none" 
	d="
M205.000000,40.531338 
	C204.730927,40.844120 204.243042,40.711300 204.223831,40.529095 
	C202.135971,20.715479 187.978516,11.830245 171.757858,5.074442 
	C167.535599,3.315903 162.786392,2.822623 158.139603,1.374107 
	C173.587463,1.000000 189.174927,1.000000 205.000000,1.000000 
	C205.000000,14.019932 205.000000,27.041307 205.000000,40.531338 
z"/>
<path fill="#707070" opacity="1.000000" stroke="none" 
	d="
M1.809812,51.942150 
	C1.787351,54.500439 1.764891,57.058727 1.371215,59.808510 
	C1.000000,57.629444 1.000000,55.258884 1.202120,52.425041 
	C1.404240,51.961754 1.809812,51.942150 1.809812,51.942150 
z"/>
<path fill="#929292" opacity="1.000000" stroke="none" 
	d="
M1.860849,51.573631 
	C1.809812,51.942150 1.404240,51.961754 1.202120,51.980877 
	C1.000000,50.933353 1.000000,49.866703 1.000000,48.400028 
	C1.303962,49.068371 1.607924,50.136742 1.860849,51.573631 
z"/>
<path fill="#F3F4F6" opacity="1.000000" stroke="none" 
	d="
M147.710678,196.641602 
	C140.215073,204.320236 131.094574,206.909317 121.103271,206.529968 
	C111.683334,206.172302 103.063484,197.672256 101.629517,186.760925 
	C100.418221,177.544006 100.272697,168.182938 99.766174,158.879654 
	C99.587791,155.603302 99.737671,152.309067 99.737671,148.212357 
	C90.960785,155.130539 81.612129,156.368210 71.619370,153.799057 
	C70.656654,153.551544 69.448486,153.443695 68.833031,152.807693 
	C66.663086,150.565338 63.397881,148.334671 62.966946,145.703400 
	C62.320927,141.758820 66.442390,140.729248 69.702995,139.750061 
	C75.159325,138.111511 81.448296,138.142654 84.900642,132.370453 
	C85.225471,131.827347 85.505302,131.257339 86.007233,130.326782 
	C84.555832,130.124207 83.281509,130.286514 82.407791,129.770508 
	C75.505753,125.694260 71.721786,129.858871 67.926109,134.827759 
	C64.999870,138.658478 61.697155,142.210556 58.452343,145.787186 
	C50.868744,154.146271 42.656208,154.604370 35.641541,145.743271 
	C30.673470,139.467468 26.744366,132.081436 23.675791,124.644554 
	C15.020150,103.667046 9.262286,81.773193 7.190234,59.176125 
	C6.463357,51.249065 7.498488,42.760788 9.630258,35.054722 
	C14.024403,19.170467 28.005497,9.717525 45.354832,9.189779 
	C56.971355,8.836417 68.110649,11.196959 79.154106,14.494180 
	C80.941742,15.027908 83.458153,14.947711 85.033829,14.068755 
	C95.483757,8.239476 106.538345,7.997323 117.973236,9.611834 
	C120.809914,10.012348 123.898010,9.848459 126.686096,9.177543 
	C143.655624,5.094053 160.489502,4.406269 176.236145,13.032617 
	C198.408478,25.179092 200.335190,34.499317 197.268311,54.824505 
	C193.573151,79.313522 184.111359,101.751694 171.162247,122.769379 
	C170.560486,123.746117 169.960617,124.724030 169.195801,125.968292 
	C175.582397,129.315125 181.995560,127.428482 188.319260,126.668907 
	C192.046021,126.221252 196.626358,124.208328 198.618301,128.587845 
	C200.794861,133.373306 196.279526,136.033417 193.080795,138.554932 
	C185.547363,144.493423 176.716934,146.451431 167.323120,146.452530 
	C164.519058,146.452866 161.714996,146.452576 158.454147,146.452576 
	C157.365097,155.072327 156.328629,163.944366 155.101929,172.790039 
	C153.961807,181.011414 153.406647,189.444336 147.710678,196.641602 
M163.223099,64.279930 
	C162.817230,63.547626 162.411362,62.815323 161.178574,61.934330 
	C159.784729,61.965191 158.390884,61.996056 156.179337,61.927826 
	C153.454208,62.631428 150.729095,63.335030 147.317871,64.248604 
	C143.587875,67.535378 142.859360,72.152359 144.422745,76.127090 
	C148.888794,87.481415 154.099533,98.544243 159.115402,109.677559 
	C159.429214,110.374062 160.586304,110.690651 162.246643,111.761742 
	C162.529358,95.611572 162.797089,80.316803 163.223099,64.279930 
M148.655487,175.946625 
	C150.039886,164.381134 151.748062,152.841827 152.686295,141.240250 
	C153.242386,134.364014 153.532257,127.853882 160.525894,125.493111 
	C154.621979,114.248756 148.515182,103.735420 143.541580,92.710876 
	C140.725296,86.468292 138.861984,79.475594 138.193649,72.661446 
	C137.260361,63.146000 142.803619,57.367126 152.304535,56.049213 
	C155.067535,55.665939 157.856049,55.466602 161.470230,55.097412 
	C160.848465,52.716671 160.685745,50.566120 159.764969,48.813938 
	C153.417587,36.735344 144.630096,26.815699 132.249786,20.819906 
	C123.599045,16.630344 114.571320,14.980742 104.477081,15.576228 
	C90.885223,16.378048 80.872017,21.538296 74.997849,33.309460 
	C71.427071,40.464878 69.805016,48.601639 67.421768,56.332767 
	C66.983185,57.755497 67.092133,59.347015 66.945213,60.893661 
	C72.544930,59.360985 77.408592,57.608505 82.425240,56.750080 
	C91.124466,55.261501 98.501862,59.694920 100.531914,67.923004 
	C104.267136,83.062424 105.076797,98.136032 97.821861,112.724777 
	C95.961281,116.466171 94.770767,120.540779 93.270226,124.468010 
	C104.300865,128.242004 105.911194,131.020294 105.964432,141.940201 
	C106.030914,155.577774 106.360092,169.227570 107.095398,182.844040 
	C107.657730,193.257568 114.195427,200.569275 122.684120,200.197418 
	C127.690758,199.978088 132.905746,198.720901 137.527115,196.755142 
	C146.090561,193.112579 147.214325,184.790970 148.655487,175.946625 
M58.163120,136.659607 
	C61.982811,132.348404 65.802498,128.037201 69.678207,123.662766 
	C61.269012,115.016884 58.324287,105.182304 59.903275,93.648117 
	C60.731987,87.594528 60.940250,81.342354 60.486542,75.250023 
	C59.477898,61.706196 61.375187,48.671268 66.653069,36.263721 
	C69.049011,30.631212 72.659210,25.515219 75.675636,20.240044 
	C63.692284,14.996151 50.889019,15.116561 38.335369,16.460609 
	C23.420876,18.057419 13.512904,31.866724 13.026076,49.433533 
	C12.458468,69.915215 18.340080,89.241257 24.275793,108.409325 
	C27.487379,118.780441 32.070950,128.926834 37.442776,138.374481 
	C43.206306,148.511063 48.585331,148.357620 55.803883,139.515411 
	C56.435268,138.741989 57.068375,137.969971 58.163120,136.659607 
M180.048523,92.451973 
	C183.966797,78.397644 188.451233,64.465271 191.518265,50.227566 
	C192.706650,44.710896 192.103546,37.879440 189.838684,32.738621 
	C184.927170,21.590492 163.283920,11.383101 151.147919,12.859985 
	C146.990860,13.365878 142.739807,13.057300 138.542084,13.300426 
	C137.483231,13.361753 136.464432,14.114370 134.457352,14.956017 
	C146.981018,21.315800 155.666367,30.074221 162.291092,40.877159 
	C167.405762,49.217659 170.311203,57.783089 169.326294,68.201477 
	C168.051804,81.683235 168.992355,95.374977 169.018539,108.976227 
	C169.019302,109.373528 169.462921,109.769974 170.634766,111.731003 
	C173.979553,104.918663 176.866333,99.039139 180.048523,92.451973 
M73.223831,118.312477 
	C77.227356,121.675018 81.516350,124.292915 86.879601,123.893059 
	C89.151482,118.030663 91.102203,112.380119 93.502838,106.927673 
	C98.899200,94.671196 97.620827,82.217773 94.624680,69.815903 
	C93.531067,65.289131 90.088554,62.068096 85.023399,63.006290 
	C79.810669,63.971821 74.640808,65.543037 69.728630,67.531975 
	C68.229240,68.139076 66.904198,70.950569 66.769073,72.843170 
	C66.213577,80.623367 66.307899,88.447807 65.856659,96.238213 
	C65.386002,104.364014 66.543579,111.844002 73.223831,118.312477 
M87.979034,147.837677 
	C91.142929,145.785385 94.620499,144.082047 97.390732,141.591827 
	C100.798813,138.528229 100.660706,134.909164 97.661621,132.630585 
	C94.029480,129.871033 92.067322,132.870270 90.464531,135.228729 
	C86.860954,140.531296 81.885422,143.333939 75.749779,144.493179 
	C74.406609,144.746948 73.121574,145.308426 71.809769,145.728180 
	C76.756828,149.242981 81.868492,149.502808 87.979034,147.837677 
M173.454285,140.004593 
	C178.189453,139.235336 182.952179,138.529709 186.444305,135.126373 
	C179.084778,133.665985 172.078995,132.018204 164.984116,130.978134 
	C161.510529,130.468933 159.647659,132.974594 159.030823,136.346313 
	C158.384644,139.878433 160.781906,140.207291 163.202393,140.262436 
	C166.331177,140.333710 169.465714,140.152115 173.454285,140.004593 
z"/>
<path fill="#346892" opacity="1.000000" stroke="none" 
	d="
M148.545624,176.372650 
	C147.214325,184.790970 146.090561,193.112579 137.527115,196.755142 
	C132.905746,198.720901 127.690758,199.978088 122.684120,200.197418 
	C114.195427,200.569275 107.657730,193.257568 107.095398,182.844040 
	C106.360092,169.227570 106.030914,155.577774 105.964432,141.940201 
	C105.911194,131.020294 104.300865,128.242004 93.270226,124.468010 
	C94.770767,120.540779 95.961281,116.466171 97.821861,112.724777 
	C105.076797,98.136032 104.267136,83.062424 100.531914,67.923004 
	C98.501862,59.694920 91.124466,55.261501 82.425240,56.750080 
	C77.408592,57.608505 72.544930,59.360985 66.945213,60.893661 
	C67.092133,59.347015 66.983185,57.755497 67.421768,56.332767 
	C69.805016,48.601639 71.427071,40.464878 74.997849,33.309460 
	C80.872017,21.538296 90.885223,16.378048 104.477081,15.576228 
	C114.571320,14.980742 123.599045,16.630344 132.249786,20.819906 
	C144.630096,26.815699 153.417587,36.735344 159.764969,48.813938 
	C160.685745,50.566120 160.848465,52.716671 161.470230,55.097412 
	C157.856049,55.466602 155.067535,55.665939 152.304535,56.049213 
	C142.803619,57.367126 137.260361,63.146000 138.193649,72.661446 
	C138.861984,79.475594 140.725296,86.468292 143.541580,92.710876 
	C148.515182,103.735420 154.621979,114.248756 160.525894,125.493111 
	C153.532257,127.853882 153.242386,134.364014 152.686295,141.240250 
	C151.748062,152.841827 150.039886,164.381134 148.545624,176.372650 
z"/>
<path fill="#346891" opacity="1.000000" stroke="none" 
	d="
M57.931904,136.928467 
	C57.068375,137.969971 56.435268,138.741989 55.803883,139.515411 
	C48.585331,148.357620 43.206306,148.511063 37.442776,138.374481 
	C32.070950,128.926834 27.487379,118.780441 24.275793,108.409325 
	C18.340080,89.241257 12.458468,69.915215 13.026076,49.433533 
	C13.512904,31.866724 23.420876,18.057419 38.335369,16.460609 
	C50.889019,15.116561 63.692284,14.996151 75.675636,20.240044 
	C72.659210,25.515219 69.049011,30.631212 66.653069,36.263721 
	C61.375187,48.671268 59.477898,61.706196 60.486542,75.250023 
	C60.940250,81.342354 60.731987,87.594528 59.903275,93.648117 
	C58.324287,105.182304 61.269012,115.016884 69.678207,123.662766 
	C65.802498,128.037201 61.982811,132.348404 57.931904,136.928467 
z"/>
<path fill="#346892" opacity="1.000000" stroke="none" 
	d="
M179.900818,92.805794 
	C176.866333,99.039139 173.979553,104.918663 170.634766,111.731003 
	C169.462921,109.769974 169.019302,109.373528 169.018539,108.976227 
	C168.992355,95.374977 168.051804,81.683235 169.326294,68.201477 
	C170.311203,57.783089 167.405762,49.217659 162.291092,40.877159 
	C155.666367,30.074221 146.981018,21.315800 134.457352,14.956017 
	C136.464432,14.114370 137.483231,13.361753 138.542084,13.300426 
	C142.739807,13.057300 146.990860,13.365878 151.147919,12.859985 
	C163.283920,11.383101 184.927170,21.590492 189.838684,32.738621 
	C192.103546,37.879440 192.706650,44.710896 191.518265,50.227566 
	C188.451233,64.465271 183.966797,78.397644 179.900818,92.805794 
z"/>
<path fill="#356892" opacity="1.000000" stroke="none" 
	d="
M72.966202,118.056450 
	C66.543579,111.844002 65.386002,104.364014 65.856659,96.238213 
	C66.307899,88.447807 66.213577,80.623367 66.769073,72.843170 
	C66.904198,70.950569 68.229240,68.139076 69.728630,67.531975 
	C74.640808,65.543037 79.810669,63.971821 85.023399,63.006290 
	C90.088554,62.068096 93.531067,65.289131 94.624680,69.815903 
	C97.620827,82.217773 98.899200,94.671196 93.502838,106.927673 
	C91.102203,112.380119 89.151482,118.030663 86.879601,123.893059 
	C81.516350,124.292915 77.227356,121.675018 72.966202,118.056450 
M82.283287,70.321632 
	C83.321815,71.109825 84.354492,72.538559 85.400131,72.548126 
	C87.362106,72.566040 89.438828,71.993492 91.231583,71.158997 
	C91.758820,70.913567 91.786209,68.010078 91.541046,67.933632 
	C88.975525,67.133736 86.321564,66.449547 83.656967,66.277649 
	C83.126602,66.243439 82.447388,68.516678 82.283287,70.321632 
z"/>
<path fill="#386B94" opacity="1.000000" stroke="none" 
	d="
M156.997040,62.026917 
	C158.390884,61.996056 159.784729,61.965191 161.584625,62.345703 
	C162.348709,63.512070 162.706772,64.267052 163.064819,65.022041 
	C162.797089,80.316803 162.529358,95.611572 162.246643,111.761742 
	C160.586304,110.690651 159.429214,110.374062 159.115402,109.677559 
	C154.099533,98.544243 148.888794,87.481415 144.422745,76.127090 
	C142.859360,72.152359 143.587875,67.535378 147.672836,64.549179 
	C148.087555,65.387291 148.147308,65.924843 148.247223,66.783066 
	C149.583740,70.687401 152.241882,71.497055 155.317566,69.874260 
	C157.124695,68.920776 159.788116,67.372948 156.864975,64.222107 
	C156.939575,63.198608 156.968307,62.612759 156.997040,62.026917 
z"/>
<path fill="#3C6E96" opacity="1.000000" stroke="none" 
	d="
M87.583794,147.921936 
	C81.868492,149.502808 76.756828,149.242981 71.809769,145.728180 
	C73.121574,145.308426 74.406609,144.746948 75.749779,144.493179 
	C81.885422,143.333939 86.860954,140.531296 90.464531,135.228729 
	C92.067322,132.870270 94.029480,129.871033 97.661621,132.630585 
	C100.660706,134.909164 100.798813,138.528229 97.390732,141.591827 
	C94.620499,144.082047 91.142929,145.785385 87.583794,147.921936 
z"/>
<path fill="#3E6F97" opacity="1.000000" stroke="none" 
	d="
M173.026031,140.041992 
	C169.465714,140.152115 166.331177,140.333710 163.202393,140.262436 
	C160.781906,140.207291 158.384644,139.878433 159.030823,136.346313 
	C159.647659,132.974594 161.510529,130.468933 164.984116,130.978134 
	C172.078995,132.018204 179.084778,133.665985 186.444305,135.126373 
	C182.952179,138.529709 178.189453,139.235336 173.026031,140.041992 
z"/>
<path fill="#27628E" opacity="1.000000" stroke="none" 
	d="
M148.207062,66.462387 
	C148.147308,65.924843 148.087555,65.387291 148.015884,64.444191 
	C150.729095,63.335030 153.454208,62.631428 156.588196,61.977371 
	C156.968307,62.612759 156.939575,63.198608 156.482391,64.161789 
	C153.438309,65.180214 150.822678,65.821304 148.207062,66.462387 
z"/>
<path fill="#27628E" opacity="1.000000" stroke="none" 
	d="
M163.143951,64.650986 
	C162.706772,64.267052 162.348709,63.512070 161.998077,62.420052 
	C162.411362,62.815323 162.817230,63.547626 163.143951,64.650986 
z"/>
<path fill="#F0F3F6" opacity="1.000000" stroke="none" 
	d="
M82.060051,70.023766 
	C82.447388,68.516678 83.126602,66.243439 83.656967,66.277649 
	C86.321564,66.449547 88.975525,67.133736 91.541046,67.933632 
	C91.786209,68.010078 91.758820,70.913567 91.231583,71.158997 
	C89.438828,71.993492 87.362106,72.566040 85.400131,72.548126 
	C84.354492,72.538559 83.321815,71.109825 82.060051,70.023766 
z"/>
<path fill="#EEF1F5" opacity="1.000000" stroke="none" 
	d="
M148.247223,66.783066 
	C150.822678,65.821304 153.438309,65.180214 156.436523,64.599442 
	C159.788116,67.372948 157.124695,68.920776 155.317566,69.874260 
	C152.241882,71.497055 149.583740,70.687401 148.247223,66.783066 
z"/>
</svg>